<svg xmlns="http://www.w3.org/2000/svg" width="175.634" height="122.94" viewBox="0 0 175.634 122.94">
  <path id="Icon_awesome-box-open" data-name="Icon awesome-box-open" d="M116.826,63.726A13.3,13.3,0,0,1,105.465,57.3L87.82,28.052,70.2,57.3a13.347,13.347,0,0,1-11.388,6.449,12.621,12.621,0,0,1-3.65-.521L17.571,52.475V101.32a8.753,8.753,0,0,0,6.641,8.507l59.328,14.846a17.838,17.838,0,0,0,8.507,0l59.383-14.846a8.8,8.8,0,0,0,6.641-8.507V52.475L120.475,63.2A12.621,12.621,0,0,1,116.826,63.726Zm58.34-30.789L161.033,4.727a4.482,4.482,0,0,0-4.583-2.442L87.82,11.039l25.164,41.738a4.51,4.51,0,0,0,5.077,2l54.306-15.5a4.52,4.52,0,0,0,2.8-6.339ZM14.607,4.727.475,32.937a4.474,4.474,0,0,0,2.772,6.311l54.306,15.5a4.51,4.51,0,0,0,5.077-2L87.82,11.039,19.163,2.285A4.484,4.484,0,0,0,14.607,4.727Z" transform="translate(0.003 -2.247)" fill="#8ecae6"/>
</svg>
