<svg xmlns="http://www.w3.org/2000/svg" width="91.313" height="89" viewBox="0 0 91.313 89">
  <path id="Icon_awesome-arrow-left" data-name="Icon awesome-arrow-left" d="M52.486,85.686,47.961,90.21a4.871,4.871,0,0,1-6.909,0L1.433,50.612a4.871,4.871,0,0,1,0-6.909L41.052,4.084a4.871,4.871,0,0,1,6.909,0l4.524,4.524A4.9,4.9,0,0,1,52.4,15.6L27.846,39H86.418a4.879,4.879,0,0,1,4.891,4.891v6.522A4.879,4.879,0,0,1,86.418,55.3H27.846L52.4,78.7A4.861,4.861,0,0,1,52.486,85.686Z" transform="translate(0.004 -2.647)" fill="#dabfff"/>
</svg>
