<svg xmlns="http://www.w3.org/2000/svg" width="110.988" height="97.114" viewBox="0 0 110.988 97.114"><path d="M100.583,97.114H72.836A10.408,10.408,0,0,1,62.431,86.709V58.962A10.408,10.408,0,0,1,72.836,48.557H90.178V34.684A13.886,13.886,0,0,0,76.3,20.81H74.57a5.19,5.19,0,0,1-5.2-5.2V5.2A5.19,5.19,0,0,1,74.57,0H76.3a34.674,34.674,0,0,1,34.684,34.684V86.709A10.408,10.408,0,0,1,100.583,97.114Zm-62.431,0H10.405A10.408,10.408,0,0,1,0,86.709V58.962A10.408,10.408,0,0,1,10.405,48.557H27.747V34.684A13.886,13.886,0,0,0,13.873,20.81H12.139a5.19,5.19,0,0,1-5.2-5.2V5.2a5.19,5.19,0,0,1,5.2-5.2h1.734A34.674,34.674,0,0,1,48.557,34.684V86.709A10.408,10.408,0,0,1,38.152,97.114Z" fill="#8ecae6"/></svg>