<?xml version="1.0" encoding="UTF-8"?>
<svg id="Layer_2" data-name="Layer 2" xmlns="http://www.w3.org/2000/svg" viewBox="0 0 462.01 58.12">
  <defs>
    <style>
      .cls-1 {
        fill: #fff;
      }

      .cls-2 {
        fill: #373030;
      }
    </style>
  </defs>
  <g id="Layer_1-2" data-name="Layer 1">
    <g id="Groupe_16" data-name="Groupe 16">
      <path id="Tracé_44" data-name="Tracé 44" class="cls-2" d="m317.33,23.78c1.62-2.59,3.14-4.91,4.54-7.28.36-.88,1.42-1.42,2.52-1.27,1.44.1,2.89.02,4.51.02-.17-.17-.3-.37-.41-.57-.11-.36-.33-.8-.17-1.06.14-.23.75-.34,1.15-.34,2.41-.03,4.81-.02,7.4-.02-.09.69-.17,1.28-.27,1.99.45.02.84.05,1.24.05,13.87-.01,27.75-.03,41.62-.06.76-.05,1.49.31,1.8.89,3.2,5.18,6.41,10.35,9.62,15.52.31.5.6,1,.93,1.48.79,1.13.74,1.26-.77,1.76q-2.14.71-2.14,2.64v2.06c.51-.14.93-.22,1.31-.36,9.27-3.47,18.58-6.87,27.77-10.47,2.57-1.01,4.88-.37,7.29-.07,2.92.36,5.8.91,9.05,1.43,0-1.32.05-2.56-.04-3.78-.02-.24-.63-.43-.94-.67-.33-.26-.61-.55-.92-.83.38-.19.76-.53,1.14-.54,3-.04,6-.04,8.99.02.51.01,1.36.3,1.45.59.18.59-.53.68-1.14.81-.37.16-.61.46-.66.81-.03,1.4.02,2.8.16,4.19.03.29.6.71,1,.77,3.18.54,6.38,1.01,9.57,1.5,1.74.27,2.33.73,2.48,1.82.11.8-.08,1.32-1.23,1.18-.25,0-.5.02-.74.06v2.6c0,5.46.02,10.91-.04,16.37-.01,1.05.43,1.3,1.59,1.26,1.91-.07,3.83.02,5.75-.03.95-.03,1.26.31,1.29,1.03.04.82-.55.85-1.3.85-17.92,0-35.83,0-53.75.01-131.33,0-262.66,0-393.99,0-3.87,0-7.75-.04-11.62-.06C.7,58.06,0,58.06,0,57.31c0-.71.54-1.05,1.39-1.05,1.49,0,2.98,0,4.56,0v-17.46c-.05-.04-.11-.07-.18-.09-.63-.14-1.6-.11-1.82-.44-.47-.71.03-1.42.83-1.87,3.21-1.82,6.37-3.7,9.66-5.41,1.62-.84,2.56-1.75,2.2-3.42-.07-.56-.07-1.12-.02-1.68,0-.75.23-1.56-1.18-1.68-.22-.02-.53-.67-.5-1.01.02-.26.5-.71.78-.72,3.16-.05,6.31-.03,9.83-.03-.57,1.08-1.02,1.95-1.47,2.81l.24.15c.48-.29.96-.6,1.45-.87,3.42-1.93,6.86-3.84,10.24-5.81.66-.45,1.61-.42,2.22.08,4.34,2.53,8.73,5,13.26,7.58.26-.6.46-1.04.64-1.48,1.69-4.12,3.39-8.25,5.06-12.38.13-.56.76-.94,1.44-.87,24.62.01,49.25,0,73.87-.03.8-.11,1.55.34,1.69,1.01.7,1.89,1.5,3.75,2.34,5.82.45-.46.77-.76,1.06-1.08,1.57-1.72,3.17-3.42,4.67-5.19.55-.71,1.52-1.1,2.53-1.03,10.87.03,21.75.04,32.62.03,1.12,0,2.25,0,3.37-.04.33-.06.64-.16.93-.29-.12-.28-.26-.55-.41-.82-.07-.11-.3-.15-.38-.26-.26-.33-.49-.67-.74-1.01.42-.17.83-.48,1.26-.49,2.16-.06,4.33-.06,6.5-.01.46.09.89.25,1.28.48-.21.36-.39.73-.63,1.07-.1.14-.36.21-.46.35-.17.22-.27.47-.27.73.02.11.47.25.73.25,1.58.03,3.17.07,4.75.03,4.85-.13,4.84-.13,7.77,3.08,1.7,1.86,3.45,3.68,5.18,5.52.12.1.25.2.39.28L227.24,0l6.34,6.24c.45-1.09.43-1.82-.34-2.47-.15-.12-.29-.25-.41-.4-.65-.84-.32-1.43.85-1.45,1.75-.03,3.5-.03,5.25.02.36,0,.96.2,1.01.39.13.39.04.81-.24,1.14-.72.55-1.05,1.37-.87,2.17.08,1.08.09,2.17.02,3.25-.23,1.79.58,3.57,2.18,4.78,1.61,1.36,3,2.9,4.49,4.36.29.29.61.55,1.08.98.45-.9.86-1.64,1.2-2.4,1.37-3.07,2.74-6.14,4.04-9.24.32-.76.84-.88,1.69-.88,7.21.03,14.41.03,21.62,0,.48-.03.93-.2,1.29-.48,1.45-1.1,2.85-2.24,4.39-3.46,1.08.86,2.22,1.67,3.21,2.6,1.03.98,2.54,1.49,4.09,1.39,6.66-.06,13.33,0,20-.04.79-.1,1.54.33,1.72.98,2.26,5.14,4.57,10.26,6.87,15.39.18.31.38.61.61.9m11.84,17.37c-3.25,0-6.28-.02-9.31.04-.25,0-.68.53-.68.83-.06,2.16,0,4.33-.05,6.49-.01.65.28.87,1.01.86,2.75-.02,5.49.01,8.24-.03.27,0,.75-.35.75-.55.05-2.51.03-5.01.03-7.65M102.96,22.99h-5.86c-.62,0-.98.16-.97.79.04,2.05.01,4.11-.02,6.16,0,.63.2,1.01,1.04.99,1.62-.02,3.24.02,4.85-.05.33-.02.91-.42.92-.66.07-2.32.04-4.65.04-7.24m-7.76,3.96h-.03c0-.98-.08-1.96.03-2.93.1-.86-.35-1.02-1.21-.99-1.5.05-3,.09-4.49.07-.81-.01-1.1.21-1.09.9.04,1.99.03,3.98,0,5.97,0,.6.22.92.99.92,1.62,0,3.25,0,4.87.02.78,0,.98-.31.95-.92-.05-1.01-.01-2.03-.01-3.04m98.06,8.13h0c.92,0,1.83-.05,2.74,0,.95.05,1.33-.18,1.28-1.05-.08-1.46-.02-2.93.05-4.39.03-.64-.23-.89-.98-.88-2.04.01-4.08.02-6.12-.01-.75-.01-.9.29-.89.83.01,1.54,0,3.07-.06,4.61-.03.7.31.93,1.1.91.96-.03,1.91,0,2.87,0m-12.91-6.27c0,1.95-.02,3.83.04,5.7,0,.2.51.54.79.55,2.07.05,4.15.05,6.23,0,.29,0,.81-.34.81-.53.06-1.9.04-3.8.04-5.72h-7.9Zm-29.13.21c-2.08,0-4.03-.02-5.97.02-.28.06-.5.24-.59.48-.04,1.69-.03,3.39-.03,5.17h6.59v-5.67Zm11.49,5.65c2.04,0,3.99.02,5.94-.03.34-.08.61-.31.7-.6.06-1.4.05-2.79-.03-4.19-.02-.28-.45-.76-.71-.77-1.94-.06-3.88-.04-5.91-.04v5.62Zm-.01,10.27v5.63c2.06,0,4.04.02,6.02-.03.23,0,.62-.44.63-.69.05-1.39.05-2.79-.03-4.19-.09-.32-.37-.59-.75-.69-1.94-.06-3.88-.03-5.88-.03m-18,0v5.61c1.97,0,3.87.03,5.77-.03.39-.08.7-.33.82-.65.08-1.39.08-2.78,0-4.17-.01-.26-.46-.72-.72-.73-1.93-.06-3.87-.03-5.87-.03m112.43-12.48h-.06c0,.77.03,1.54-.01,2.31-.03.55.22.74.87.72,1.25-.03,2.5-.03,3.75,0,.7.02,1.09-.13,1.08-.81-.03-1.47,0-2.93.05-4.4.02-.56-.28-.73-.9-.72-1.29.01-2.58,0-3.87-.02-.69,0-.95.24-.91.83.05.69.01,1.4.01,2.1m41.47-2.87c0,1.79-.03,3.53.04,5.26,0,.2.5.54.79.56,1.24.08,2.49.09,3.73.03.35-.02.94-.42.95-.66.08-1.7.04-3.4.04-5.19h-5.55Zm-34.88,5.85h5.24v-5.83h-5.24v5.83Zm46.91-.03c0-1.82.03-3.53-.04-5.22,0-.22-.51-.6-.8-.62-1.24-.07-2.48-.08-3.73-.03-.3.01-.83.32-.84.5-.08,1.56-.1,3.13-.05,4.7.12.32.44.56.82.64,1.48.07,2.97.03,4.63.03m-18.01-5.86c0,1.81-.03,3.55.03,5.29.1.29.37.52.72.61,1.12.06,2.25.01,3.37.01.78,0,1.1-.31,1.09-.97-.02-1.36.01-2.72.05-4.09.02-.63-.32-.87-1.05-.85-1.33.03-2.66,0-4.2,0m-41.55,2.76h-.03v2.41c0,.5.19.77.88.74,1.12-.04,2.24-.04,3.36,0,.66.02.89-.19.89-.72-.02-1.47-.04-2.93-.02-4.4.01-.6-.31-.8-.97-.8-1.08,0-2.16-.03-3.24-.06-.62-.02-.91.18-.88.73.04.7.01,1.4.01,2.1m170.77,13.38c-2.08,0-4.03-.02-5.98.03-.35.08-.62.31-.72.6-.08,1.01-.09,2.02-.02,3.03.01.21.39.59.6.59,2.02.05,4.04.03,6.11.03v-4.27Zm-379.32.85h8.04v-3.47c-2.42,0-4.78-.02-7.13.03-.39.06-.72.28-.87.59-.1.92-.04,1.86-.04,2.86m365.14,3.36h6.48v-4.14h-6.48v4.14Zm10.79-4.97h1c3,0,2.35.07,2.49-1.98.02-.28-.03-.56,0-.84.11-.84-.26-1.21-1.32-1.16-1.33.07-2.66.06-3.99-.02-1.2-.09-1.56.2-1.52,1.24.09,2.78.03,2.78,3.35,2.76m-4.3-3.93h-6.55v3.94h6.55v-3.94Zm-61.09,4.37c0,1.01.05,2.02-.02,3.03-.06.8.34,1.08,1.23,1.01.33-.04.66-.05.99-.05.86.05,1.14-.25,1.12-.98-.06-1.99-.06-3.97-.01-5.96.02-.82-.34-1.17-1.31-1.08-.33.03-.66.04-.99.04-.73-.03-1.05.21-1.02.86.05,1.04.01,2.09.01,3.13m-280.49-12.72c-1.29,0-2.45-.06-3.59.04-.41.13-.71.43-.8.78-.06.76-.07,1.53-.02,2.3q-.02,2.88,3.43,2.73s.1.02.12,0c.29-.25.82-.5.83-.78.08-1.63.04-3.27.04-5.08m274.79,12.9h.04c0-1.04-.02-2.09,0-3.13.02-.64-.13-1.2-1.07-.99-.79.18-2.19-.48-2.18,1,.02,1.74-.02,3.48-.03,5.22q-.01,1.85,2.2,1.74s.08,0,.12,0c.7.05.95-.21.92-.8-.05-1.01-.01-2.02-.01-3.03m-7.44,3.83c.73,0,1.42-.02,2.11,0,.8.03,1.1-.22,1.08-.92-.05-2.06-.02-4.12-.08-6.18,0-.25-.36-.67-.6-.7-.83-.06-1.67-.07-2.51-.03v7.82ZM67.53,32.71c-1.13,0-2.28.02-3.42,0-.7-.02-.95.22-.94.81.04,1.43-.01,2.85.05,4.28.01.24.39.65.63.66,1.19.07,2.39.03,3.68.03v-5.78Zm51.29,0v5.76c1.3,0,2.5.03,3.68-.03.31-.09.55-.31.62-.59.06-1.53.07-3.06.02-4.59-.1-.26-.34-.46-.66-.53-1.19-.06-2.38-.03-3.66-.03m238.98,8.83v7.86c.5,0,.9.01,1.31,0,1.83-.07,1.82-.07,1.82-1.56,0-1.32.01-2.65.02-3.97v-2.33h-3.14ZM64.75,23.36c0,1.1.06,2.04-.02,2.97-.07.8.38.95,1.19.92,1.27-.06,2.55-.05,3.82.01.89.06,1.23-.19,1.22-.91.06-.7.07-1.39.04-2.09-.04-.32-.45-.86-.72-.87-1.85-.08-3.7-.04-5.54-.04m297.27,25.96c.71.03,1.21.03,1.7.08,1.04.09,1.51-.2,1.44-1.16-.1-1.25-.02-2.51-.02-3.77v-3.1c-.77-.04-1.54-.03-2.31.03-.3.04-.77.38-.78.59-.05,2.4-.04,4.8-.04,7.33m-238.24-10.81c1.24,0,2.28-.02,3.31,0,.77.02,1.03-.31,1.01-.9-.02-.73-.02-1.47-.02-2.2q0-2.93-3.52-2.69s-.1-.01-.12,0c-.22.19-.62.38-.63.57-.05,1.67-.03,3.34-.03,5.21m224.98,3.16c0,2.3.06,4.53-.03,6.76-.03.79.27,1.01,1.1.96.33-.02.67-.03,1-.01.85.06,1.18-.22,1.15-.96-.07-1.57-.04-3.14-.05-4.72q-.02-2.54-3.06-2.09s-.07.04-.11.06m-306.11.55h7.97c.1-.68.15-1.37.15-2.05-.01-.25-.39-.7-.61-.71-2.47-.05-4.95-.03-7.5-.03v2.79Zm83.97-16.9c-.02-.24-.02-.49,0-.73.19-1.01-.32-1.38-1.51-1.29-.94.07-1.88.08-2.81.04-1.99-.08-1.99-.1-1.99,1.59,0,.49.03.98.01,1.47-.02.68.33.94,1.14.87.81-.1,1.63-.12,2.45-.05,2.55.31,2.68.26,2.71-1.9M21.31,42.41c-1.44,0-2.8.02-4.16,0-.72-.01-.93.37-.76.8.36.9-.94,2.28.69,2.7,1.27.33,2.76.07,4.23.07v-3.55Zm357.25,5.66c0-1.08.07-2.08-.04-3.07-.1-.37-.42-.67-.85-.8-1.02-.07-2.04-.08-3.05-.04-.07,1.15-.18,2.22-.17,3.28.1.29.37.52.71.6,1.06.07,2.13.03,3.4.03m5-3.9c-1.1,0-2.05.03-3,0-.68-.03-1.01.17-1.01.76,0,.9-.07,1.81-.03,2.7,0,.15.42.41.66.42,1.1.04,2.21.02,3.39.02v-3.89Zm-5.08-4.51h-1.13c-2.99-.01-3.02-.01-2.88,2.47.02.31.45.87.68.86,1.11-.04,2.22-.14,3.32-.29.01-.1.02-.2.01-.3v-2.74m-340.8,6.88h4c-.11-1.24-.2-2.36-.31-3.61l-3.69.25v3.36Zm341.83-6.65c0,.78-.03,1.71.03,2.63.09.24.31.42.6.49,1.14.05,2.29.02,3.42.02.04-4.06.9-3.35-3.71-3.35-.03,0-.07.04-.34.2m52.41,2.57c.08,2.15-.46,1.8,2.81,1.81,2.14,0,1.01-1.42,1.11-2.19.14-1.15.01-1.12-2.85-1.15-1.71-.02-.86,1.01-1.07,1.53m8.76,1.73c1.13,0,2.12.04,3.1-.03.29-.02.78-.37.78-.57-.04-.87-.14-1.74-.29-2.6,0-.03-.23-.04-.35-.05-3.1-.37-3.33-.21-3.29,2.35,0,.27.04.55.06.89m-217.84-24.4q0,1.8,2.1,1.84c.17,0,.33,0,.5.02.62.04,1.14-.1,1.03-.72-.17-.92.81-2.13-.52-2.71-.91-.25-1.88-.23-2.78.04-.25.06-.22,1-.32,1.54m8.21-1.65c-1.17,0-2.12-.02-3.07.02-.19,0-.52.22-.53.34-.12.97-.07,1.94.12,2.9.07.23,1.49.18,2.29.25.12.01.29.04.37-.01.29-.2.75-.41.77-.64.09-.92.04-1.86.04-2.85m8.28,17.5c.21-3.66.73-3.82-3.26-3.3-.07,0-.12.08-.24.15-.04.82-.02,1.64.04,2.46.11.32.41.56.79.66.89.06,1.78.07,2.67.03m-7.98-3.24c0,.4,0,.85,0,1.29.06,2.16.1,2.18,2.74,1.85.04,0,.1,0,.12,0,.22-.17.57-.31.63-.51.71-2.34-.41-3.3-3.2-2.77-.1.04-.2.09-.29.15m4.45,17.75c4.01.17,3.61.73,3.61-2.51,0-.03.02-.08,0-.1-.26-.25-.52-.7-.78-.7-.95.03-1.89.12-2.82.26-.02.1-.02.2-.01.29v2.75m-13.88-17.97c-1.12,0-1.99-.03-2.85.02-.24.02-.66.28-.67.44-.11.95-.04,1.91.22,2.84.09.23,1.66.09,2.54.03.34-.08.62-.3.72-.59.08-.89.04-1.79.04-2.74m-1.89,14.66c-1.74,0-1.7,0-1.77,2.37-.05,1.61,1.36.95,2.19,1,1.53.1,1.54.03,1.54-1.42q0-1.95-1.96-1.95m-2.6,1.66l.13-.03c-.17-.54-.21-1.47-.52-1.54-.96-.18-1.96-.18-2.92,0-.18.03-.22.93-.23,1.44-.06,2.25-.2,1.77,2.24,1.89,1.08.05,1.42-.3,1.31-1.13-.01-.21-.01-.42,0-.62m13.94-1.64v1.5c0,1.96.51,2.32,2.83,1.84.39-.18.65-.51.69-.88-.09-.82-.23-1.64-.44-2.45,0-.01-.08-.02-.12-.02h-2.96m-193.7-4.57c1.12,0,2.15.03,3.17-.02.29-.05.53-.22.64-.45.07-.78.03-1.57.03-2.43h-3.83v2.9Zm176.2-8.38c.03,1.75-.29,1.69,2.03,1.64.29.01.58,0,.87-.02.18-.03.49-.15.49-.24.04-.93.04-1.87,0-2.8,0-.12-.34-.28-.56-.34-1.95-.46-2.84.1-2.83,1.75m16.91-19.81c-.95,0-1.86-.03-2.76.02-.21.01-.57.24-.59.39-.11.69-.13,1.38-.07,2.07.11.29.4.52.76.59,3.24-.15,3.16.15,2.82-2.39-.03-.2-.09-.4-.16-.67M33.55,31.03c-.09.66-.13,1.32-.11,1.99.02.21.49.53.78.55.86.07,1.74-.01,2.61.03.83.04,1.13-.26,1.05-.92.03-.35.02-.69-.04-1.03-.13-.28-.41-.5-.75-.58-1.15-.06-2.3-.03-3.54-.03m38.07,20.85c0-.99.01-1.85-.01-2.71,0-.15-.16-.41-.26-.41-.89-.11-1.8-.11-2.69,0-.26.05-.4.9-.42,1.38-.08,1.75-.05,1.75,2,1.75h1.39M224.91,14.13c-.81.21-2.26-.45-1.97,1.02.15.75-.69,2.03,1.09,2.11,2.26.1,2.46-.13,2.49-2.53.02-1.22-1.16-.26-1.62-.61M32.37,31.03c-1.16,0-2.23-.02-3.3.02-.27.01-.76.22-.76.34.01.7,0,1.96.26,2,1.21.13,2.43.15,3.64.05.06,0,.15-.17.15-.26.01-.72,0-1.43,0-2.14m87.26,19.29q0,1.59,1.61,1.59c1.76,0,1.8-.07,1.83-2.18.01-.84-.44-1.08-1.37-1.05-2.39.09-2.04-.18-2.07,1.63m119.77-4.61c0-.45-.02-.83,0-1.21.11-1.71.28-1.71-1.96-1.7-1.7,0-1.7,0-1.64,1.49.02.44,0,.89,0,1.42h3.6Zm0-17.48h-3.52v2.07c0,.61.37.85,1.09.85,2.47.02,2.47.03,2.44-2.01v-.91m-20.96-.08c-.1.77-.16,1.54-.16,2.31.09.3.35.53.69.63.78.06,1.57.05,2.35-.03.28-.08.5-.27.58-.5.5-1.9.01-2.41-2.25-2.4h-1.22m-94.62,23.68h3.34c0-.47,0-.85,0-1.23-.05-2.48.34-1.88-2.5-1.86-.38.08-.69.33-.8.64-.07.82-.08,1.64-.04,2.46m94.52-7.62q-.02,1.54,1.11,1.55c2.45.03,2.52,0,2.52-1.1,0-1.82,0-1.75-2.46-1.88-1.57-.08-1.09.77-1.17,1.42m-.98-1.39c-.97,0-1.91-.03-2.84.02-.29.07-.52.25-.63.48-.57,1.95-.07,2.48,2.27,2.45.16,0,.38.05.49-.02.26-.16.65-.36.68-.56.08-.75.03-1.5.03-2.38m0-14.68c-.91,0-1.69,0-2.47,0-.32,0-.64.04-1.02.06,0,.78.02,1.5,0,2.23-.02.61.31.76,1,.72,2.44-.11,2.45-.08,2.5-2.13,0-.24,0-.48,0-.88m13.98,15.91c-.01,1.87-.32,1.72,1.81,1.75,1.76.02,1.76,0,1.77-1.7,0-1.3,0-1.23-2.19-1.33-1.46-.07-1.57.53-1.39,1.29m-164,7.83c.03-.5.05-.85.07-1.2.11-2.13-.04-2.26-2.56-1.96-.28.03-.71.31-.74.5-.07.73-.06,1.46.02,2.19.08.22.28.38.54.44.86.05,1.72.02,2.67.02m164.01-23.73c0,.41,0,.72,0,1.02.05,2.06.29,2.23,2.77,1.91.25-.03.66-.2.67-.33.13-.75.1-1.51-.07-2.25-.08-.23-1.12-.27-1.73-.34-.55-.03-1.1-.04-1.65-.01m-159.77,16.87c-4.06-.18-3.28-.29-3.43,1.95,0,.07-.03.17.02.2.27.21.54.56.83.58.86,0,1.73-.04,2.58-.12v-2.62Zm52.27-.08c.04.67.04,1.34-.02,2-.13.82.35.97,1.15.9.32-.06.65-.08.99-.08,1.16.11,1.38-.32,1.28-1.23-.2-1.73.09-1.63-2.05-1.59-.37,0-.74,0-1.34,0m-90.2-14.82h4.22c.03-.57.02-1.13-.03-1.7-.07-.24-.29-.44-.57-.51-1.18-.05-2.36-.02-3.62-.02v2.24Zm-1.35-2.24c-1,0-2.02.03-3.04,0-.84-.03-1.08.32-1.08.95,0,1.59.27,1.58,1.61,1.32.17-.02.33-.03.5-.02q2.3-.04,2.01-2.24m31.81,17.12c-.04.73-.03,1.46.04,2.18.12.28.4.5.75.57.8.05,1.61.06,2.41.03v-2.78h-3.2Zm55.58-.06v2.62c3.07.6,3.26.49,3.3-1.52.02-.86-.32-1.21-1.36-1.11-.64.03-1.29.04-1.94.01m161.48,5.71c.14.48-.46,1.34.94,1.34,2.33-.02,2.33,0,2.35-1.86.02-1.62-1.48-.77-2.27-.91-1.5-.26-.9.77-1.02,1.43m20.85,1.27c.89,0,1.67.02,2.45-.01.26-.01.73-.16.73-.25.05-.75-.02-1.5-.19-2.24-.05-.17-.92-.2-1.41-.26-1.21-.14-1.78.25-1.59,1.33.04.48.05.96.01,1.43m-38.39-.01c-.03-.56-.03-1.12.01-1.68.12-.86-.32-1.14-1.28-1.03-.41,0-.83.02-1.24.06-.26.06-.66.3-.67.47-.08.69,0,1.38.21,2.04.08.19,1.1.11,1.68.13.37.02.74,0,1.27,0m16.75-1.23c0-1.48-.05-1.48-2.07-1.52-1.21-.02-1.19.59-1.2,1.3-.02.86-.01,1.59,1.45,1.53,1.67-.07,1.82-.1,1.82-1.3m19.18-1.48c-.9-.11-1.81-.05-1.66,1.1.08.66-.45,1.73,1.14,1.6.83-.07,2.14.54,2.15-.96.02-1.64.02-1.7-1.63-1.75m-16.84-3.17c-.51.18-1.73-.44-1.51.79.11.61-.73,1.79.92,1.67.83-.06,2.38.67,2.42-.95.04-1.49.02-1.49-1.83-1.51m-24.77,5.92c.83-.01,1.77.22,1.71-1.01-.07-1.52-.15-1.62-2.07-1.74-1.35-.08-1.2.64-1.21,1.34-.02,1.37-.03,1.37,1.58,1.4m90.61-13.87c.2,1.06.04,2.15.55,2.46.85.33,1.83.32,2.66-.03.36-.15.43-1.73.13-1.86-1.08-.32-2.2-.51-3.35-.57m6.07.16c-.57.16-1.83-.37-1.6.85.11.59-.59,1.7,1.06,1.68,2.21-.04,2.25-.1,2.33-1.59.07-1.21-.93-.87-1.79-.94m-77.35,10.24c.79.04,1.59.03,2.37-.04.36-.13.61-.41.66-.74-.1-.55.54-1.34-.51-1.63-1.97-.56-2.79-.03-2.66,1.67.02.24.08.47.13.74m-15.53,0c1.95-.02,1.96-.03,1.95-1.05-.02-1.41-.04-1.42-1.76-1.42-.93,0-1.73-.04-1.59,1.12.11.89.05,1.69,1.4,1.35m95.96-10.26c-.05.42-.08.66-.09.89-.06,1.49.18,1.66,2.42,1.58,1.38-.05.87-.94.95-1.56.08-.73-.34-.99-1.19-.92-.65.05-1.31.01-2.08.01m-58.46,10.19c1.02.08,2.03.24,1.88-1-.07-.6.41-1.46-1.05-1.44-1.96.02-2.2.08-2.23,1.07-.03.85-.05,1.71,1.4,1.38m-199.8-12.54v.02c.91,0,1.83.04,2.73-.03.24-.02.55-.34.62-.56.04-.11-.35-.48-.56-.49-1.78-.06-3.56-.1-5.33-.06-.25,0-.48.41-.72.63.26.16.5.44.78.47.82.06,1.65.02,2.48.02m204.19,12.55c.86.06,1.8.09,1.68-1.16-.11-1.19-.21-1.28-2.01-1.25-.7.01-1.41-.13-1.32.86.14,1.57.07,1.58,1.65,1.55m42.08-7.79c1.6.04,1.59,0,1.75-1.61.08-.87-.56-.83-1.18-.76-.82.1-2.16-.62-2.17.92,0,1.35.02,1.41,1.6,1.45m16.07-2.32c.09.6.19,1.08.23,1.56.14,1.46,1.43.58,2.19.73.8.17.94-.31.95-.88.03-1.52-.03-1.59-1.86-1.49-.45.03-.9.04-1.51.07m-105.32,10.06c.47,0,.88,0,1.29,0,1.61.04,2.19-.54,1.83-1.87-.1-.21-.3-.37-.56-.44-2.23-.47-2.84-.03-2.69,1.88.03.14.08.28.14.42m84.96-7.81c1.54.02,1.51,0,1.62-1.11.09-.95-.32-1.39-1.45-1.28-.76.08-1.84-.3-1.79.97.06,1.37,0,1.4,1.62,1.41m-249.44-6.44v.07c.7.03,1.41.02,2.11-.02.36-.09.7-.23,1-.42-.32-.23-.63-.64-.96-.65-1.61-.05-3.23-.01-4.85.05-.27.01-.53.28-.79.43.25.18.48.49.75.5.91.06,1.82.02,2.74.02m-3.31.73c-.17.57-.22.98.71.98,1.62,0,3.24.08,4.85.07.28,0,.55-.33.82-.5-.23-.18-.46-.52-.7-.52-1.86-.04-3.72-.02-5.69-.02m14.32-1.32l-.23-.27c-1.36-.07-2.72-.14-4.08-.19-.62-.05-1.24-.04-1.86.03-.27.04-.49.36-.73.56.25.16.51.44.77.45,1.74.04,3.48.06,5.22,0,.31,0,.61-.38.91-.58m-3.41,3.86c.91,0,1.82.02,2.73-.02.22-.03.4-.16.49-.33.03-.14-.19-.45-.31-.45-1.98-.07-3.97-.11-5.95-.12-.15,0-.43.35-.41.52.02.15.37.36.59.37.95.04,1.9.02,2.86.02m-4,0c-.45-.44-.65-.8-.87-.81-1.9-.08-3.81-.12-5.72-.12-.18,0-.48.3-.5.48-.02.14.31.43.5.44,2.06.03,4.13.02,6.59.02m7.22-5.94c-2.36.44-4.62-.2-6.76.36v.5h6.7c0-.1.03-.36.06-.86m86.14,16.55c-.33-.04-.66-.04-.98.02-.42.19-.81.41-1.17.66.37.29.69.73,1.13.84.6.14,1.23.15,1.84.02.41-.12.72-.39.85-.73.19-1.24-.92-.8-1.66-.8m-100.25-16.42c-.26.64-.04.88.71.88,1.66-.01,3.32.04,4.97,0,.29,0,.58-.28.86-.43-.32-.15-.64-.43-.97-.43-1.82-.04-3.64-.02-5.58-.02m233.88,6.67c.26.82.24,1.63.71,1.97.64.24,1.39.18,1.96-.16.42-.32.33-1.1.49-1.81h-3.15Zm-1.73-.02c-.95.06-1.86-.12-1.8.87.03.61.01,1.27,1.16,1.24,1.01-.03,1.64-.21,1.62-1.21-.01-.78-.43-.97-.98-.89m7.11,2.04c1.03.16,1.24-.44,1.27-1.11.03-.76-.55-1.04-1.36-1.04-.86,0-1.36.25-1.32,1.11.04.82.42,1.15,1.4,1.05m-64.3-.34c-.04.23-.09.3-.06.36.16.38.32,1.05.51,1.06.84.07,1.68-.02,2.48-.25.48-.16.07-1.11-.55-1.16-.8-.06-1.6-.02-2.37-.02m43.95,1.64l.38-.27c-.1-.44-.1-1.21-.33-1.26-.76-.14-1.55-.15-2.31-.02-.15.02-.3.96-.24.98.82.24,1.67.4,2.51.57m-11.29.22c.67-.49,1.44-.79,1.45-1.1,0-.89-.95-.74-1.68-.78-.67-.04-1.31.1-1.12.73.11.38.75.65,1.36,1.15m-31.65-2.18c.79-.37,1.68-.55,1.81-.91.2-.57-.5-.94-1.22-.8-.65.12-1.69-.12-1.69.81,0,.27.63.54,1.09.9m-9.79.31c-.69-.04-1.32-.06-1.29.74.03.66.48.83,1.15.75.59-.07,1.47.21,1.52-.65.05-.82-.65-.92-1.39-.83m3.51.01c-.7-.01-1.41-.11-1.4.77.01.73.57.75,1.19.72.59-.03,1.34.12,1.39-.68.04-.7-.45-.91-1.17-.8m4.38.15l-.38-.27c-.68.11-1.34.27-1.98.48-.11.04,0,.94.18.99.57.19,1.2.2,1.79.04.3-.12.27-.81.39-1.24m43.77-.47c.64-.38,1.43-.63,1.44-.9.02-.76-.8-.7-1.46-.69-.59.01-1.44-.17-1.34.62.04.32.78.58,1.36.97m-10.15-1.98l-1.48.88c.39.27.74.69,1.18.76.55.08,1.5.26,1.47-.59-.01-.31-.66-.61-1.17-1.04m3.25,4.22c.69-.55,1.32-.82,1.43-1.2.19-.63-.45-.77-1.11-.74-.61.03-1.38-.09-1.19.74.07.33.42.61.87,1.21m4.64-1.73l-.39-.37c-.66.14-1.3.33-1.92.55-.1.27-.07.56.07.81.54.21,1.15.27,1.74.19.3-.08.35-.77.51-1.18m-50.52-2.26c-.34.98-.05,1.46.96,1.41.52-.02,1.5.35,1.42-.51-.13-1.41-1.59-.43-2.39-.9m3.82-.07l-.48.32c.11.39.12,1.06.35,1.12.64.1,1.3.09,1.94-.02.11-.01.26-.56.21-.58-.65-.31-1.34-.56-2.02-.83m42.24,1.85c.56-.49.95-.82,1.29-1.18.02-.02-.48-.52-.63-.48-.65.18-1.28.4-1.89.65.33.27.66.54,1.23,1.01m3.11-.06l1.24-.88c-.4-.26-.78-.7-1.19-.73-.33-.02-.7.47-1.06.73l1.01.88m-41.35.07l1.09-.99c-.34-.22-.64-.56-1.02-.64-.59-.12-1.29,0-1.21.66.03.28.6.52,1.14.96m-9.56-.19c-.55.54-1.06.83-1.02,1.05.06.34.49.64.77.95.34-.26.82-.48.96-.8.09-.21-.32-.57-.71-1.19m57.72,2.33c.51-.52.96-.78,1.01-1.09.1-.61-.47-.89-1.11-.76-.34.07-.84.47-.82.69.02.32.46.61.93,1.15m-41.44.03c.42-.57.83-.88.79-1.13-.1-.35-.4-.63-.8-.76-.79-.15-.99.39-.9.9.05.26.42.48.91.99m39.65-4.68c-.02-.18-.04-.35-.06-.53-.67-.07-1.34-.11-2.02-.12-.19,0-.45.25-.52.43-.04.1.25.43.37.42.74-.03,1.49-.13,2.23-.21m-42.78-.62c-.28-.04-.56-.03-.83.02-.3.16-.57.34-.82.55.29.11.6.19.91.24.4.03.8.02,1.2-.04.27-.07.52-.16.76-.28-.19-.17-.35-.4-.58-.5-.2-.08-.49,0-.64,0m29.04,3.47l-.35-.21c-.46.1-.9.28-1.28.52-.15.14,0,.69.23.91.29.15.64.2.98.14.19-.44.33-.89.42-1.36m-39.26-2.36l1.12-.64c-.35-.2-.68-.53-1.05-.56-.39-.03-.82.24-1.23.37l1.16.82m14.54,1.11c-.56-.41-.88-.8-1.08-.76-.41.15-.79.36-1.12.62.29.22.55.57.88.63.3.05.68-.23,1.32-.48m-11.18-1.11l1.25-.67c-.4-.25-.84-.43-1.32-.55-.3-.03-.65.34-.97.54l1.04.68m51.57,1.96c.38-.47.83-.81.75-.98-.17-.31-.51-.54-.92-.59-.31.02-.59.44-.89.68l1.05.9m-15.54-.79l.34-.54c-.37-.13-.78-.4-1.1-.34-.38.07-.67.44-1,.68.23.22.46.6.7.61.35.01.71-.25,1.06-.4m-42.55.64l.92-.83c-.29-.21-.61-.61-.87-.59-.33.04-.61.41-.92.64l.86.77m43.32-2.87c.46.78,1.41,1.07,2.03.68.18-.13.28-.32.29-.52,0-.09-.3-.27-.46-.26-.6,0-1.2.06-1.86.11m3.55.3c.04.11.08.22.11.32,1.46.44,1.9.31,2.18-.78l-2.3.45m5.42.14l-.17-.38h-1.8c-.04.1-.08.2-.12.3.33.15.65.41.98.42.4-.05.78-.17,1.12-.34m-42.51-.68l-1.01.62c.27.16.56.47.81.45.38-.1.74-.25,1.05-.46l-.85-.61m-8.81.54c-.41-.24-.67-.5-.8-.46-.31.15-.6.33-.86.54.16.17.38.5.47.47.42-.15.82-.34,1.19-.55"/>
      <path id="Tracé_45" data-name="Tracé 45" class="cls-1" d="m329.16,41.16c0,2.63.02,5.14-.03,7.65,0,.19-.49.54-.75.55-2.75.04-5.49.01-8.24.03-.74,0-1.03-.21-1.01-.86.04-2.16-.01-4.33.05-6.5,0-.29.44-.82.68-.83,3.03-.06,6.06-.04,9.31-.04"/>
      <path id="Tracé_46" data-name="Tracé 46" class="cls-1" d="m102.96,22.99c0,2.59.03,4.91-.04,7.24,0,.24-.59.64-.92.66-1.61.08-3.23.03-4.85.05-.84.01-1.05-.37-1.04-.99.03-2.05.05-4.11.02-6.16-.01-.64.36-.79.97-.79,1.86,0,3.72,0,5.86,0"/>
      <path id="Tracé_47" data-name="Tracé 47" class="cls-1" d="m95.2,26.95c0,1.01-.04,2.03.01,3.04.03.61-.18.93-.95.92-1.62-.02-3.25-.03-4.87-.02-.77,0-.99-.32-.99-.92.03-1.99.04-3.98,0-5.97-.01-.69.28-.91,1.09-.9,1.5.02,3-.02,4.49-.07.86-.03,1.3.14,1.21.99-.11.97-.03,1.95-.03,2.93h.03"/>
      <path id="Tracé_48" data-name="Tracé 48" class="cls-1" d="m193.26,35.08c-.96,0-1.91-.02-2.87,0-.79.03-1.13-.21-1.1-.91.06-1.54.07-3.07.06-4.61,0-.55.14-.85.89-.83,2.04.03,4.08.03,6.12.01.75,0,1.01.24.98.89-.07,1.46-.13,2.93-.05,4.39.05.87-.33,1.1-1.28,1.05-.91-.05-1.83-.01-2.74-.01h0Z"/>
      <path id="Tracé_49" data-name="Tracé 49" class="cls-1" d="m180.34,28.8h7.9c0,1.92.02,3.82-.04,5.72,0,.19-.52.53-.81.53-2.07.04-4.15.04-6.23,0-.28,0-.78-.35-.79-.55-.06-1.87-.04-3.75-.04-5.7"/>
      <path id="Tracé_50" data-name="Tracé 50" class="cls-1" d="m151.22,29.01v5.67h-6.59c0-1.79-.02-3.48.03-5.17.08-.23.31-.41.59-.48,1.94-.04,3.89-.02,5.97-.02"/>
      <path id="Tracé_51" data-name="Tracé 51" class="cls-1" d="m162.71,34.67v-5.62c2.03,0,3.97-.03,5.91.04.26,0,.69.49.71.77.08,1.39.08,2.79.03,4.19-.09.29-.36.52-.7.6-1.95.05-3.9.03-5.94.03"/>
      <path id="Tracé_52" data-name="Tracé 52" class="cls-1" d="m162.7,44.94c1.99,0,3.94-.03,5.88.03.38.11.66.37.75.69.08,1.39.08,2.79.03,4.19,0,.25-.4.68-.63.69-1.98.06-3.97.03-6.02.03v-5.63Z"/>
      <path id="Tracé_53" data-name="Tracé 53" class="cls-1" d="m144.7,44.93c1.99,0,3.93-.03,5.87.03.26,0,.71.47.72.73.07,1.39.07,2.78,0,4.17-.12.32-.43.57-.82.65-1.9.06-3.8.03-5.77.03v-5.61Z"/>
      <path id="Tracé_54" data-name="Tracé 54" class="cls-1" d="m257.13,32.46c0-.7.04-1.4-.01-2.1-.05-.59.22-.84.91-.83,1.29.02,2.58.03,3.87.01.62,0,.92.16.9.72-.04,1.47-.07,2.93-.05,4.4.01.68-.37.83-1.08.81-1.25-.03-2.5-.03-3.75,0-.65.02-.9-.17-.87-.72.04-.77.01-1.54.01-2.31h.06Z"/>
      <path id="Tracé_55" data-name="Tracé 55" class="cls-1" d="m298.6,29.59h5.55c0,1.79.04,3.49-.04,5.19-.01.24-.6.64-.95.66-1.24.06-2.49.05-3.73-.03-.29-.02-.79-.36-.79-.56-.06-1.73-.04-3.47-.04-5.26"/>
      <rect id="Rectangle_207" data-name="Rectangle 207" class="cls-1" x="263.72" y="29.61" width="5.24" height="5.83"/>
      <path id="Tracé_56" data-name="Tracé 56" class="cls-1" d="m310.63,35.42c-1.66,0-3.15.04-4.63-.03-.39-.08-.7-.32-.82-.64-.06-1.56-.04-3.13.05-4.7.01-.19.54-.5.84-.5,1.24-.05,2.49-.05,3.73.03.3.02.8.39.8.62.07,1.7.04,3.4.04,5.22"/>
      <path id="Tracé_57" data-name="Tracé 57" class="cls-1" d="m292.62,29.56c1.54,0,2.87.02,4.2,0,.74-.01,1.07.22,1.05.86-.04,1.36-.07,2.72-.05,4.09.01.66-.31.97-1.09.97-1.12,0-2.25.05-3.37-.01-.35-.08-.62-.31-.72-.61-.06-1.74-.03-3.48-.03-5.29"/>
      <path id="Tracé_58" data-name="Tracé 58" class="cls-1" d="m251.07,32.32c0-.7.03-1.4-.01-2.1-.03-.56.25-.76.88-.73,1.08.03,2.16.06,3.24.06.66,0,.98.2.97.8-.02,1.47,0,2.93.02,4.4,0,.53-.22.75-.89.72-1.12-.04-2.24-.05-3.36,0-.69.03-.88-.24-.88-.74v-2.41h.03"/>
      <path id="Tracé_59" data-name="Tracé 59" class="cls-1" d="m421.84,45.7v4.27c-2.08,0-4.1.02-6.11-.03-.22,0-.59-.38-.6-.59-.06-1.01-.06-2.02.02-3.03.1-.29.37-.52.72-.6,1.95-.05,3.89-.03,5.98-.03"/>
      <path id="Tracé_60" data-name="Tracé 60" class="cls-1" d="m42.52,46.54c0-1-.06-1.93.04-2.86.15-.31.48-.53.87-.59,2.35-.05,4.71-.03,7.13-.03v3.47h-8.04Z"/>
      <rect id="Rectangle_208" data-name="Rectangle 208" class="cls-1" x="407.66" y="45.77" width="6.48" height="4.14"/>
      <path id="Tracé_61" data-name="Tracé 61" class="cls-1" d="m418.45,44.93c-3.32.02-3.26.02-3.35-2.76-.04-1.04.32-1.33,1.52-1.24,1.33.09,2.66.09,3.99.02,1.07-.05,1.43.32,1.32,1.16-.04.28.02.56,0,.84-.14,2.05.52,1.97-2.48,1.98h-1"/>
      <rect id="Rectangle_209" data-name="Rectangle 209" class="cls-1" x="407.61" y="41" width="6.55" height="3.94"/>
      <path id="Tracé_62" data-name="Tracé 62" class="cls-1" d="m353.07,45.37c0-1.04.03-2.09-.01-3.13-.03-.65.29-.89,1.02-.86.33,0,.66,0,.99-.04.97-.08,1.33.27,1.31,1.08-.04,1.99-.04,3.97.01,5.96.02.73-.26,1.03-1.12.98-.33,0-.66,0-.99.05-.89.07-1.29-.21-1.23-1.01.07-1.01.02-2.02.02-3.03"/>
      <path id="Tracé_63" data-name="Tracé 63" class="cls-1" d="m72.59,32.64c0,1.81.04,3.44-.04,5.08-.01.27-.54.52-.83.78-.02.02-.08,0-.12,0q-3.45.15-3.43-2.73c-.05-.77-.04-1.53.02-2.3.09-.36.39-.65.8-.78,1.14-.09,2.3-.04,3.59-.04"/>
      <path id="Tracé_64" data-name="Tracé 64" class="cls-1" d="m347.38,45.55c0,1.01-.04,2.02.01,3.03.03.59-.22.85-.92.8-.04,0-.08,0-.12,0q-2.21.11-2.2-1.74c.01-1.74.04-3.48.03-5.22-.01-1.48,1.38-.82,2.18-1,.94-.21,1.08.35,1.07.99-.03,1.04,0,2.09,0,3.13h-.04"/>
      <path id="Tracé_65" data-name="Tracé 65" class="cls-1" d="m339.94,49.38v-7.82c.84-.03,1.67-.02,2.51.03.24.03.6.45.6.7.06,2.06.02,4.12.08,6.18.02.69-.29.95-1.08.92-.69-.03-1.38,0-2.11,0"/>
      <path id="Tracé_66" data-name="Tracé 66" class="cls-1" d="m67.53,32.71v5.78c-1.29,0-2.49.04-3.68-.03-.24-.01-.62-.43-.63-.66-.06-1.43-.02-2.85-.05-4.28-.01-.58.23-.82.93-.81,1.14.03,2.29,0,3.43,0"/>
      <path id="Tracé_67" data-name="Tracé 67" class="cls-1" d="m118.82,32.71c1.28,0,2.48-.03,3.66.03.32.07.57.27.66.53.05,1.53.04,3.06-.02,4.59-.07.27-.31.49-.62.59-1.19.06-2.38.03-3.68.03v-5.76Z"/>
      <path id="Tracé_68" data-name="Tracé 68" class="cls-1" d="m357.8,41.54h3.14v2.33c0,1.32-.02,2.65-.02,3.97,0,1.49.02,1.49-1.82,1.56-.4.02-.81,0-1.31,0v-7.86Z"/>
      <path id="Tracé_69" data-name="Tracé 69" class="cls-1" d="m64.75,23.36c1.84,0,3.69-.04,5.54.04.27.01.68.55.72.87.03.7.02,1.39-.04,2.09,0,.72-.33.97-1.22.91-1.27-.06-2.55-.07-3.82-.01-.81.02-1.26-.12-1.19-.92.08-.93.02-1.87.02-2.97"/>
      <path id="Tracé_70" data-name="Tracé 70" class="cls-1" d="m362.03,49.32c0-2.53-.02-4.93.04-7.33,0-.21.48-.55.78-.59.77-.06,1.54-.06,2.31-.03v3.1c0,1.26-.08,2.52.02,3.77.07.96-.39,1.26-1.44,1.16-.49-.04-.98-.05-1.7-.08"/>
      <path id="Tracé_71" data-name="Tracé 71" class="cls-1" d="m123.79,38.5c0-1.87-.02-3.54.03-5.21,0-.2.4-.39.63-.57.02-.02.08,0,.12,0q3.53-.24,3.52,2.69c0,.73,0,1.47.02,2.2.02.59-.24.92-1.01.9-1.03-.02-2.07,0-3.31,0"/>
      <path id="Tracé_72" data-name="Tracé 72" class="cls-1" d="m348.77,41.66s.08-.06.11-.06q3.04-.44,3.06,2.09c.01,1.57-.02,3.15.05,4.72.03.75-.3,1.03-1.15.96-.33-.02-.67-.01-1,.01-.83.05-1.14-.17-1.1-.96.09-2.23.03-4.46.03-6.76"/>
      <path id="Tracé_73" data-name="Tracé 73" class="cls-1" d="m42.66,42.21v-2.79c2.55,0,5.03-.02,7.5.03.22,0,.6.45.61.71,0,.69-.05,1.37-.15,2.05h-7.97Z"/>
      <path id="Tracé_74" data-name="Tracé 74" class="cls-1" d="m126.63,25.32c-.02,2.15-.15,2.21-2.7,1.9-.82-.06-1.64-.05-2.45.05-.81.06-1.16-.19-1.14-.87.02-.49-.01-.98-.01-1.47,0-1.69,0-1.68,1.99-1.59.94.05,1.88.03,2.81-.03,1.19-.09,1.7.27,1.51,1.29-.02.24-.03.49,0,.73m-3.34,1.1h.2v-2.16h-.2v2.16Z"/>
      <path id="Tracé_75" data-name="Tracé 75" class="cls-1" d="m21.31,42.41v3.55c-1.46,0-2.95.26-4.23-.07-1.63-.42-.33-1.79-.69-2.7-.17-.43.04-.81.76-.8,1.36.02,2.72,0,4.16,0"/>
      <path id="Tracé_76" data-name="Tracé 76" class="cls-1" d="m378.56,48.08c-1.27,0-2.34.04-3.4-.03-.34-.08-.61-.31-.71-.6-.01-1.07.1-2.14.17-3.29,1.02-.04,2.04-.03,3.05.04.43.13.75.43.85.8.11.99.04,1.99.04,3.07"/>
      <path id="Tracé_77" data-name="Tracé 77" class="cls-1" d="m383.56,44.18v3.89c-1.17,0-2.28.03-3.39-.02-.24-.01-.65-.27-.66-.42-.04-.9.02-1.8.03-2.7,0-.59.34-.78,1.02-.76.95.04,1.9,0,3,0"/>
      <path id="Tracé_78" data-name="Tracé 78" class="cls-1" d="m378.48,39.67v2.74c0,.1,0,.2-.01.3-1.1.15-2.21.25-3.32.29-.23,0-.66-.55-.68-.86-.14-2.48-.11-2.48,2.88-2.47h1.13"/>
      <path id="Tracé_79" data-name="Tracé 79" class="cls-1" d="m37.68,46.55v-3.36l3.69-.25c.11,1.24.2,2.37.31,3.61h-3.99Z"/>
      <path id="Tracé_80" data-name="Tracé 80" class="cls-1" d="m379.51,39.9c.27-.17.31-.2.34-.2,4.61,0,3.75-.71,3.71,3.35-1.14,0-2.28.03-3.42-.02-.29-.06-.51-.25-.6-.49-.06-.92-.03-1.86-.03-2.63"/>
      <path id="Tracé_81" data-name="Tracé 81" class="cls-1" d="m431.93,42.46c.2-.52-.65-1.54,1.07-1.53,2.86.03,2.99,0,2.85,1.15-.1.77,1.04,2.19-1.11,2.19-3.27,0-2.73.34-2.81-1.81"/>
      <path id="Tracé_82" data-name="Tracé 82" class="cls-1" d="m440.69,44.19c-.02-.34-.05-.61-.06-.89-.04-2.57.19-2.72,3.29-2.35.12.02.35.02.35.05.15.86.25,1.73.29,2.6,0,.19-.49.54-.78.57-.98.07-1.97.03-3.1.03"/>
      <path id="Tracé_83" data-name="Tracé 83" class="cls-1" d="m222.85,19.79c.1-.54.07-1.48.32-1.54.9-.27,1.87-.28,2.78-.04,1.33.58.35,1.79.52,2.71.12.62-.4.76-1.03.72-.16-.01-.33-.01-.5-.02q-2.1-.04-2.1-1.84"/>
      <path id="Tracé_84" data-name="Tracé 84" class="cls-1" d="m231.05,18.14c0,.99.05,1.92-.04,2.85-.02.23-.49.45-.77.64-.07.05-.24.02-.37.01-.8-.07-2.22-.02-2.29-.25-.2-.96-.24-1.93-.12-2.9,0-.12.34-.33.53-.34.94-.04,1.89-.02,3.07-.02"/>
      <path id="Tracé_85" data-name="Tracé 85" class="cls-1" d="m239.33,35.64c-.89.04-1.78.02-2.67-.03-.38-.09-.67-.34-.79-.66-.06-.82-.08-1.64-.04-2.46.11-.07.17-.14.24-.15,3.98-.52,3.46-.36,3.26,3.3"/>
      <path id="Tracé_86" data-name="Tracé 86" class="cls-1" d="m231.35,32.4c.09-.06.19-.11.29-.15,2.79-.53,3.91.43,3.2,2.77-.06.2-.41.35-.63.51-.02.02-.08,0-.12,0-2.65.34-2.68.32-2.74-1.85-.01-.45,0-.89,0-1.29"/>
      <path id="Tracé_87" data-name="Tracé 87" class="cls-1" d="m235.8,50.15v-2.75c0-.1,0-.2.01-.29.93-.14,1.87-.23,2.82-.26.26,0,.52.45.78.7.02.02,0,.07,0,.1,0,3.24.4,2.67-3.62,2.51"/>
      <path id="Tracé_88" data-name="Tracé 88" class="cls-1" d="m221.93,32.17c0,.96.05,1.86-.03,2.74-.11.29-.38.51-.72.59-.88.07-2.46.2-2.54-.03-.26-.93-.33-1.89-.22-2.84,0-.16.42-.42.67-.44.86-.05,1.73-.02,2.85-.02"/>
      <path id="Tracé_89" data-name="Tracé 89" class="cls-1" d="m220.04,46.83q1.95,0,1.96,1.95c0,1.45,0,1.52-1.54,1.42-.83-.05-2.24.61-2.19-1,.07-2.37.03-2.37,1.77-2.37"/>
      <path id="Tracé_90" data-name="Tracé 90" class="cls-1" d="m217.44,48.49c-.01.21-.01.42,0,.62.1.83-.24,1.18-1.31,1.13-2.43-.12-2.29.36-2.24-1.89.01-.5.05-1.41.23-1.44.96-.18,1.96-.18,2.92,0,.32.07.36,1.01.52,1.54l-.13.03"/>
      <path id="Tracé_91" data-name="Tracé 91" class="cls-1" d="m231.38,46.85h2.96s.12,0,.12.02c.21.81.36,1.62.44,2.45-.04.37-.3.7-.69.88-2.32.48-2.83.12-2.83-1.84v-1.5"/>
      <path id="Tracé_92" data-name="Tracé 92" class="cls-1" d="m37.68,42.28v-2.9h3.84c0,.87.04,1.65-.03,2.43-.01.17-.4.44-.64.45-1.03.05-2.06.02-3.17.02"/>
      <path id="Tracé_93" data-name="Tracé 93" class="cls-1" d="m213.88,33.9c0-1.65.88-2.21,2.83-1.75.22.05.55.21.56.34.05.93.04,1.87,0,2.8,0,.08-.31.21-.49.24-.29.03-.58.03-.87.02-2.32.04-2,.11-2.03-1.64"/>
      <path id="Tracé_94" data-name="Tracé 94" class="cls-1" d="m230.8,14.09c.07.28.13.47.16.67.34,2.54.42,2.25-2.82,2.39-.36-.07-.64-.29-.76-.59-.06-.69-.03-1.38.07-2.07.11-.21.33-.35.59-.39.9-.04,1.81-.02,2.76-.02"/>
      <path id="Tracé_95" data-name="Tracé 95" class="cls-1" d="m33.55,31.03c1.24,0,2.4-.04,3.54.03.34.09.62.3.75.58.06.34.08.69.04,1.03.08.67-.22.96-1.05.92-.87-.04-1.75.04-2.61-.03-.29-.02-.76-.34-.78-.55-.02-.66.02-1.33.11-1.99"/>
      <path id="Tracé_96" data-name="Tracé 96" class="cls-1" d="m71.62,51.88h-1.39c-2.04,0-2.07,0-2-1.75.02-.49.17-1.34.42-1.38.89-.1,1.8-.1,2.69,0,.1,0,.26.27.26.41.03.86.01,1.72.01,2.71"/>
      <path id="Tracé_97" data-name="Tracé 97" class="cls-1" d="m224.91,14.13c.46.35,1.63-.61,1.62.61-.04,2.4-.24,2.63-2.49,2.53-1.79-.08-.94-1.37-1.09-2.11-.29-1.47,1.16-.81,1.97-1.02"/>
      <path id="Tracé_98" data-name="Tracé 98" class="cls-1" d="m32.37,31.03c0,.71,0,1.43,0,2.14,0,.09-.1.26-.15.26-1.21.1-2.43.08-3.64-.05-.26-.05-.24-1.3-.26-2,0-.11.49-.33.76-.34,1.07-.04,2.13-.02,3.3-.02"/>
      <path id="Tracé_99" data-name="Tracé 99" class="cls-1" d="m119.63,50.32c.03-1.81-.32-1.54,2.07-1.63.93-.04,1.38.2,1.37,1.05-.04,2.11-.07,2.19-1.83,2.18q-1.61,0-1.61-1.6"/>
      <path id="Tracé_100" data-name="Tracé 100" class="cls-1" d="m239.39,45.71h-3.6c0-.53.01-.97,0-1.42-.05-1.49-.06-1.48,1.64-1.49,2.24-.01,2.07-.01,1.96,1.7-.02.38,0,.76,0,1.21"/>
      <path id="Tracé_101" data-name="Tracé 101" class="cls-1" d="m239.4,28.23v.91c.03,2.04.03,2.02-2.44,2.01-.72,0-1.09-.24-1.09-.85v-2.07h3.53Z"/>
      <path id="Tracé_102" data-name="Tracé 102" class="cls-1" d="m218.45,28.15h1.22c2.26-.01,2.75.5,2.25,2.4-.09.24-.3.42-.58.5-.78.08-1.57.1-2.35.03-.34-.1-.61-.33-.69-.63,0-.77.06-1.54.16-2.31"/>
      <path id="Tracé_103" data-name="Tracé 103" class="cls-1" d="m123.83,51.83c-.04-.82-.03-1.64.04-2.46.12-.32.42-.56.8-.64,2.83-.01,2.45-.62,2.5,1.86,0,.38,0,.76,0,1.23h-3.34Z"/>
      <path id="Tracé_104" data-name="Tracé 104" class="cls-1" d="m218.34,44.21c.08-.65-.4-1.5,1.17-1.42,2.46.13,2.47.06,2.46,1.88,0,1.09-.07,1.12-2.52,1.1q-1.14-.01-1.11-1.55"/>
      <path id="Tracé_105" data-name="Tracé 105" class="cls-1" d="m217.37,42.82c0,.87.05,1.63-.03,2.38-.02.21-.41.41-.68.56-.11.07-.32.01-.49.02-2.34.03-2.85-.5-2.27-2.45.1-.24.33-.42.62-.48.93-.05,1.87-.02,2.84-.02"/>
      <path id="Tracé_106" data-name="Tracé 106" class="cls-1" d="m217.36,28.15c0,.41,0,.65,0,.88-.06,2.04-.06,2.03-2.5,2.13-.69.03-1.02-.11-1-.72.03-.72,0-1.45,0-2.23.39-.03.71-.06,1.02-.07.78,0,1.56,0,2.47,0"/>
      <path id="Tracé_107" data-name="Tracé 107" class="cls-1" d="m231.34,44.05c-.18-.75-.07-1.35,1.39-1.29,2.19.1,2.2.04,2.19,1.33,0,1.7,0,1.72-1.77,1.7-2.14-.02-1.83.12-1.81-1.75"/>
      <path id="Tracé_108" data-name="Tracé 108" class="cls-1" d="m67.34,51.88c-.96,0-1.82.03-2.67-.02-.26-.06-.46-.23-.54-.44-.08-.73-.08-1.46-.02-2.19.02-.19.46-.47.74-.5,2.51-.29,2.66-.17,2.56,1.96-.02.35-.04.69-.07,1.2"/>
      <path id="Tracé_109" data-name="Tracé 109" class="cls-1" d="m231.35,28.15c.55-.02,1.1-.02,1.66.01.61.07,1.65.1,1.73.34.17.74.19,1.5.07,2.25,0,.13-.42.3-.67.33-2.48.33-2.72.16-2.77-1.9,0-.31,0-.61,0-1.02"/>
      <path id="Tracé_110" data-name="Tracé 110" class="cls-1" d="m71.58,45.01v2.62c-.86.08-1.72.12-2.58.12-.29-.01-.57-.37-.83-.58-.04-.03-.02-.13-.02-.2.15-2.24-.63-2.13,3.43-1.95"/>
      <path id="Tracé_111" data-name="Tracé 111" class="cls-1" d="m123.86,44.93h1.34c2.14-.03,1.86-.13,2.05,1.59.1.9-.12,1.34-1.28,1.23-.33,0-.66.02-.99.08-.8.08-1.27-.08-1.15-.9.05-.67.06-1.33.02-2"/>
      <path id="Tracé_112" data-name="Tracé 112" class="cls-1" d="m33.65,30.11v-2.24c1.26,0,2.44-.03,3.62.02.28.08.5.27.57.51.05.57.06,1.13.03,1.7h-4.22Z"/>
      <path id="Tracé_113" data-name="Tracé 113" class="cls-1" d="m32.31,27.87q.29,2.2-2.01,2.24c-.17,0-.33,0-.5.02-1.34.26-1.6.27-1.61-1.32,0-.63.24-.98,1.08-.95,1.02.04,2.04,0,3.04,0"/>
      <path id="Tracé_114" data-name="Tracé 114" class="cls-1" d="m64.11,44.99h3.2v2.78c-.8.03-1.61.02-2.41-.03-.35-.07-.63-.29-.75-.57-.06-.73-.07-1.45-.04-2.18"/>
      <path id="Tracé_115" data-name="Tracé 115" class="cls-1" d="m119.69,44.93c.65.03,1.29.02,1.94-.01,1.04-.1,1.38.24,1.36,1.11-.04,2.01-.23,2.12-3.3,1.52v-2.61Z"/>
      <path id="Tracé_116" data-name="Tracé 116" class="cls-1" d="m281.17,50.64c.12-.66-.48-1.69,1.02-1.43.79.14,2.29-.71,2.27.91-.02,1.85-.02,1.84-2.35,1.86-1.4.01-.8-.85-.94-1.34"/>
      <path id="Tracé_117" data-name="Tracé 117" class="cls-1" d="m302.02,51.91c.04-.48.03-.96-.01-1.43-.2-1.08.38-1.47,1.59-1.33.5.06,1.36.09,1.41.26.17.74.23,1.49.18,2.24,0,.09-.47.24-.73.25-.78.03-1.56.01-2.45.01"/>
      <path id="Tracé_118" data-name="Tracé 118" class="cls-1" d="m263.63,51.89c-.53,0-.9.01-1.27,0-.59-.03-1.61.06-1.68-.13-.22-.67-.29-1.36-.21-2.04,0-.17.4-.41.67-.47.41-.04.82-.06,1.24-.06.96-.11,1.4.17,1.28,1.03-.04.56-.05,1.12-.01,1.68"/>
      <path id="Tracé_119" data-name="Tracé 119" class="cls-1" d="m280.38,50.66c0,1.2-.15,1.23-1.82,1.3-1.46.06-1.47-.67-1.45-1.53.01-.7,0-1.32,1.2-1.3,2.02.04,2.07.04,2.07,1.52"/>
      <path id="Tracé_120" data-name="Tracé 120" class="cls-1" d="m299.56,49.18c1.65.05,1.65.11,1.63,1.74-.02,1.5-1.32.89-2.15.96-1.59.13-1.06-.95-1.14-1.6-.14-1.15.76-1.22,1.66-1.1"/>
      <path id="Tracé_121" data-name="Tracé 121" class="cls-1" d="m282.73,45.99c1.85.02,1.86.02,1.83,1.51-.04,1.61-1.59.88-2.42.95-1.65.12-.81-1.06-.92-1.67-.22-1.23,1.01-.6,1.51-.79"/>
      <path id="Tracé_122" data-name="Tracé 122" class="cls-1" d="m257.95,51.91q-1.6-.02-1.58-1.4c.01-.7-.14-1.43,1.21-1.34,1.92.12,2,.21,2.07,1.74.06,1.23-.87.99-1.71,1"/>
      <path id="Tracé_123" data-name="Tracé 123" class="cls-1" d="m348.56,38.04c1.14.05,2.27.24,3.35.57.3.13.22,1.72-.13,1.86-.84.35-1.82.36-2.66.03-.51-.32-.35-1.4-.55-2.46"/>
      <path id="Tracé_124" data-name="Tracé 124" class="cls-1" d="m354.63,38.2c.86.07,1.85-.27,1.79.94-.08,1.49-.12,1.55-2.33,1.59-1.65.03-.95-1.09-1.06-1.68-.23-1.22,1.03-.69,1.6-.85"/>
      <path id="Tracé_125" data-name="Tracé 125" class="cls-1" d="m277.28,48.45c-.05-.28-.11-.51-.13-.74-.13-1.7.69-2.22,2.66-1.67,1.05.3.41,1.08.51,1.63-.05.33-.3.61-.66.74-.79.07-1.58.08-2.37.04"/>
      <path id="Tracé_126" data-name="Tracé 126" class="cls-1" d="m261.75,48.46c-1.34.34-1.29-.46-1.4-1.35-.14-1.16.66-1.12,1.59-1.12,1.72,0,1.74,0,1.76,1.42.01,1.02,0,1.03-1.95,1.05"/>
      <path id="Tracé_127" data-name="Tracé 127" class="cls-1" d="m357.73,38.19c.77,0,1.43.04,2.08-.01.85-.07,1.28.19,1.19.92-.07.62.44,1.51-.95,1.56-2.24.08-2.49-.08-2.42-1.58.01-.24.05-.48.09-.89"/>
      <path id="Tracé_128" data-name="Tracé 128" class="cls-1" d="m299.27,48.38c-1.44.33-1.42-.53-1.4-1.38.03-.99.27-1.05,2.23-1.07,1.46-.01.98.84,1.05,1.44.15,1.24-.87,1.08-1.88,1"/>
      <path id="Tracé_129" data-name="Tracé 129" class="cls-1" d="m99.47,35.84c-.83,0-1.66.04-2.48-.02-.27-.02-.52-.3-.77-.47.24-.22.47-.63.72-.63,1.78-.03,3.56,0,5.33.06.21,0,.6.37.56.49-.08.23-.39.54-.62.56-.9.07-1.82.03-2.73.03v-.02"/>
      <path id="Tracé_130" data-name="Tracé 130" class="cls-1" d="m303.66,48.39c-1.58.03-1.51.02-1.65-1.55-.09-.99.62-.85,1.32-.86,1.8-.03,1.89.07,2.01,1.25.12,1.25-.82,1.22-1.68,1.16"/>
      <path id="Tracé_131" data-name="Tracé 131" class="cls-1" d="m345.75,40.6c-1.58-.04-1.6-.09-1.6-1.45,0-1.54,1.35-.82,2.17-.92.61-.07,1.26-.1,1.18.76-.16,1.61-.15,1.65-1.75,1.61"/>
      <path id="Tracé_132" data-name="Tracé 132" class="cls-1" d="m361.82,38.28c.61-.03,1.06-.05,1.51-.07,1.82-.1,1.89-.03,1.86,1.49-.01.57-.15,1.04-.95.88-.75-.16-2.04.73-2.18-.73-.05-.48-.14-.96-.23-1.56"/>
      <path id="Tracé_133" data-name="Tracé 133" class="cls-1" d="m256.5,48.34c-.06-.14-.1-.28-.14-.42-.14-1.92.46-2.35,2.69-1.88.25.07.46.23.56.44.37,1.33-.22,1.91-1.83,1.87-.41-.01-.82,0-1.29,0"/>
      <path id="Tracé_134" data-name="Tracé 134" class="cls-1" d="m341.46,40.54c-1.61-.02-1.56-.04-1.62-1.42-.05-1.27,1.03-.9,1.79-.97,1.13-.11,1.54.33,1.45,1.28-.11,1.1-.08,1.13-1.62,1.11"/>
      <path id="Tracé_135" data-name="Tracé 135" class="cls-1" d="m92.03,34.09c-.91,0-1.83.04-2.74-.02-.26-.02-.5-.33-.75-.5.26-.15.52-.42.79-.43,1.61-.06,3.23-.1,4.85-.05.33.01.64.42.96.65-.3.19-.64.33-1,.42-.7.04-1.41.05-2.11.02v-.08Z"/>
      <path id="Tracé_136" data-name="Tracé 136" class="cls-1" d="m88.71,34.82c1.96,0,3.83-.02,5.69.02.24,0,.47.34.7.52-.27.18-.55.5-.82.5-1.62.02-3.24-.07-4.85-.07-.93,0-.88-.42-.71-.98"/>
      <path id="Tracé_137" data-name="Tracé 137" class="cls-1" d="m103.04,33.51c-.3.2-.6.57-.91.58-1.74.05-3.48.04-5.22,0-.26,0-.51-.29-.77-.45.24-.2.46-.52.73-.56.62-.06,1.24-.07,1.86-.03,1.36.05,2.72.13,4.08.19l.23.27"/>
      <path id="Tracé_138" data-name="Tracé 138" class="cls-1" d="m99.63,37.36c-.95,0-1.91.02-2.86-.02-.21,0-.57-.23-.58-.37-.02-.17.26-.52.41-.52,1.98,0,3.97.05,5.95.12.12,0,.34.31.31.45-.09.17-.27.3-.49.33-.91.03-1.82.02-2.73.02"/>
      <path id="Tracé_139" data-name="Tracé 139" class="cls-1" d="m95.63,37.37c-2.46,0-4.53.01-6.59-.02-.18,0-.51-.3-.5-.44.02-.18.32-.48.5-.48,1.91,0,3.81.04,5.72.12.22,0,.41.37.87.81"/>
      <path id="Tracé_140" data-name="Tracé 140" class="cls-1" d="m102.85,31.43c-.04.5-.06.76-.06.86h-6.69v-.5c2.13-.55,4.4.08,6.75-.36"/>
      <path id="Tracé_141" data-name="Tracé 141" class="cls-1" d="m188.98,47.97c.74,0,1.85-.44,1.66.8-.13.35-.44.62-.85.73-.61.13-1.24.12-1.84-.02-.44-.12-.76-.55-1.13-.84.36-.25.76-.47,1.17-.66.32-.06.66-.06.98-.02"/>
      <path id="Tracé_142" data-name="Tracé 142" class="cls-1" d="m88.74,31.55c1.93,0,3.75-.02,5.58.02.33,0,.64.28.97.43-.29.15-.57.43-.86.43-1.66.03-3.31-.02-4.97,0-.75,0-.97-.24-.71-.88"/>
      <path id="Tracé_143" data-name="Tracé 143" class="cls-1" d="m322.62,38.22h3.15c-.16.71-.07,1.49-.49,1.81-.58.34-1.32.39-1.96.16-.46-.34-.45-1.14-.71-1.97"/>
      <path id="Tracé_144" data-name="Tracé 144" class="cls-1" d="m320.89,38.19c.55-.08.97.11.98.89.01,1-.62,1.18-1.62,1.21-1.15.03-1.13-.62-1.16-1.24-.06-.99.85-.81,1.8-.87"/>
      <path id="Tracé_145" data-name="Tracé 145" class="cls-1" d="m327.99,40.23c-.98.1-1.36-.23-1.4-1.05-.04-.85.46-1.11,1.32-1.11.8,0,1.39.29,1.36,1.04-.03.67-.24,1.27-1.27,1.11"/>
      <path id="Tracé_146" data-name="Tracé 146" class="cls-1" d="m263.69,39.9c.77,0,1.58-.05,2.37.02.63.05,1.04,1,.55,1.16-.79.23-1.64.32-2.48.25-.2-.01-.35-.69-.51-1.06-.02-.06.02-.14.06-.36"/>
      <path id="Tracé_147" data-name="Tracé 147" class="cls-1" d="m307.64,41.54c-.84-.18-1.69-.33-2.51-.57-.06-.02.09-.96.24-.98.76-.13,1.55-.12,2.31.02.23.05.23.82.33,1.26l-.38.27"/>
      <path id="Tracé_148" data-name="Tracé 148" class="cls-1" d="m296.35,41.76c-.61-.49-1.24-.77-1.36-1.15-.19-.63.45-.77,1.12-.73.73.04,1.69-.11,1.68.78,0,.31-.78.62-1.45,1.1"/>
      <path id="Tracé_149" data-name="Tracé 149" class="cls-1" d="m264.71,39.58c-.46-.36-1.09-.63-1.09-.9,0-.93,1.04-.69,1.69-.81.72-.14,1.42.23,1.22.8-.13.36-1.02.54-1.81.91"/>
      <path id="Tracé_150" data-name="Tracé 150" class="cls-1" d="m254.91,39.89c.74-.09,1.43.01,1.39.83-.05.86-.92.59-1.52.65-.67.08-1.13-.09-1.15-.75-.03-.8.6-.77,1.29-.74"/>
      <path id="Tracé_151" data-name="Tracé 151" class="cls-1" d="m258.43,39.9c.72-.1,1.21.1,1.17.8-.04.8-.79.65-1.39.68-.62.03-1.18.01-1.19-.72-.01-.88.7-.78,1.4-.77"/>
      <path id="Tracé_152" data-name="Tracé 152" class="cls-1" d="m262.8,40.04c-.12.43-.09,1.12-.39,1.24-.58.16-1.21.14-1.78-.04-.18-.05-.29-.95-.18-.99.64-.21,1.3-.37,1.98-.48l.37.27Z"/>
      <path id="Tracé_153" data-name="Tracé 153" class="cls-1" d="m306.57,39.57c-.58-.39-1.32-.65-1.36-.97-.1-.78.75-.6,1.34-.62.66-.01,1.49-.07,1.46.69,0,.27-.8.52-1.44.9"/>
      <path id="Tracé_154" data-name="Tracé 154" class="cls-1" d="m296.43,37.59c.51.44,1.16.73,1.17,1.04.03.85-.92.68-1.47.59-.43-.07-.79-.49-1.17-.76l1.48-.88"/>
      <path id="Tracé_155" data-name="Tracé 155" class="cls-1" d="m299.68,41.81c-.44-.6-.8-.88-.87-1.21-.18-.83.58-.71,1.19-.74.66-.03,1.3.12,1.11.74-.12.38-.75.65-1.43,1.21"/>
      <path id="Tracé_156" data-name="Tracé 156" class="cls-1" d="m304.32,40.08c-.16.41-.21,1.09-.51,1.18-.59.09-1.19.02-1.74-.19-.15-.25-.17-.54-.07-.81.63-.22,1.27-.41,1.93-.55l.4.37Z"/>
      <path id="Tracé_157" data-name="Tracé 157" class="cls-1" d="m253.79,37.83c.79.47,2.26-.5,2.39.9.08.86-.9.49-1.42.51-1.02.05-1.3-.44-.96-1.41"/>
      <path id="Tracé_158" data-name="Tracé 158" class="cls-1" d="m257.61,37.75c.68.27,1.36.53,2.02.83.05.02-.11.57-.21.58-.64.11-1.3.12-1.94.02-.22-.05-.24-.73-.35-1.12l.48-.32"/>
      <path id="Tracé_159" data-name="Tracé 159" class="cls-1" d="m299.85,39.6l-1.23-1.01c.61-.25,1.25-.47,1.89-.65.15-.04.65.46.63.48-.34.36-.73.69-1.29,1.18"/>
      <path id="Tracé_160" data-name="Tracé 160" class="cls-1" d="m302.96,39.54l-1.01-.88c.36-.26.73-.75,1.06-.73.42.03.8.47,1.2.73l-1.24.88"/>
      <path id="Tracé_161" data-name="Tracé 161" class="cls-1" d="m261.61,39.61c-.54-.44-1.11-.68-1.14-.96-.07-.66.63-.78,1.21-.67.38.08.68.42,1.02.64l-1.09.99"/>
      <path id="Tracé_162" data-name="Tracé 162" class="cls-1" d="m252.05,39.42c.39.62.8.98.71,1.19-.14.32-.62.54-.96.8-.28-.31-.71-.61-.77-.95-.04-.22.47-.51,1.02-1.05"/>
      <path id="Tracé_163" data-name="Tracé 163" class="cls-1" d="m309.78,41.75c-.47-.54-.9-.84-.93-1.15-.02-.22.48-.62.82-.69.64-.14,1.21.15,1.11.76-.05.3-.5.56-1.01,1.09"/>
      <path id="Tracé_164" data-name="Tracé 164" class="cls-1" d="m268.34,41.78c-.49-.51-.86-.73-.91-1-.09-.5.11-1.04.9-.9.4.13.69.41.8.76.05.25-.37.56-.79,1.13"/>
      <path id="Tracé_165" data-name="Tracé 165" class="cls-1" d="m307.99,37.11c-.74.08-1.48.18-2.23.21-.13,0-.41-.32-.37-.42.07-.18.34-.43.52-.43.67.01,1.35.05,2.02.12.02.18.04.35.06.53"/>
      <path id="Tracé_166" data-name="Tracé 166" class="cls-1" d="m265.22,36.49c.15,0,.44-.08.64,0,.23.09.39.33.58.5-.24.12-.49.22-.76.28-.4.06-.8.07-1.2.04-.31-.05-.62-.14-.91-.25.25-.21.52-.39.82-.55.27-.05.56-.05.83-.02"/>
      <path id="Tracé_167" data-name="Tracé 167" class="cls-1" d="m294.26,39.96c-.09.46-.23.92-.42,1.36-.34.06-.69.01-.98-.14-.23-.22-.39-.77-.23-.91.39-.24.82-.42,1.29-.52l.35.21"/>
      <path id="Tracé_168" data-name="Tracé 168" class="cls-1" d="m255,37.61l-1.16-.82c.41-.14.83-.4,1.23-.37.36.03.7.36,1.05.56l-1.12.64"/>
      <path id="Tracé_169" data-name="Tracé 169" class="cls-1" d="m269.53,38.72c-.64.25-1.02.53-1.32.48-.33-.05-.59-.4-.88-.63.33-.26.7-.47,1.12-.62.2-.04.53.35,1.08.76"/>
      <path id="Tracé_170" data-name="Tracé 170" class="cls-1" d="m258.35,37.62l-1.04-.68c.33-.19.67-.56.97-.54.48.11.92.3,1.32.55-.38.2-.75.4-1.25.67"/>
      <path id="Tracé_171" data-name="Tracé 171" class="cls-1" d="m309.92,39.57c-.5-.42-.78-.66-1.05-.9.29-.24.57-.66.89-.68.41.06.75.28.92.59.08.18-.37.51-.75.98"/>
      <path id="Tracé_172" data-name="Tracé 172" class="cls-1" d="m294.39,38.79c-.35.15-.71.41-1.06.4-.25,0-.47-.39-.7-.61.33-.24.62-.6,1-.67.32-.06.73.21,1.1.34-.11.18-.23.36-.34.54"/>
      <path id="Tracé_173" data-name="Tracé 173" class="cls-1" d="m251.84,39.43l-.86-.77c.3-.23.58-.61.92-.64.26-.03.58.38.87.59l-.92.83"/>
      <path id="Tracé_174" data-name="Tracé 174" class="cls-1" d="m295.16,36.56c.66-.04,1.26-.1,1.86-.11.16,0,.46.18.46.26-.01.2-.11.39-.29.52-.61.39-1.57.1-2.03-.68"/>
      <path id="Tracé_175" data-name="Tracé 175" class="cls-1" d="m298.71,36.86l2.3-.45c-.29,1.09-.72,1.21-2.18.78-.04-.11-.08-.22-.11-.32"/>
      <path id="Tracé_176" data-name="Tracé 176" class="cls-1" d="m304.13,37c-.35.17-.73.28-1.12.34-.33,0-.65-.27-.98-.42.04-.1.08-.2.12-.3h1.8l.17.38Z"/>
      <path id="Tracé_177" data-name="Tracé 177" class="cls-1" d="m261.63,36.32l.85.61c-.31.21-.67.36-1.05.46-.25.02-.54-.29-.81-.45l1.01-.62"/>
      <path id="Tracé_178" data-name="Tracé 178" class="cls-1" d="m252.82,36.86c-.37.22-.77.4-1.19.55-.09.02-.31-.3-.47-.47.26-.21.55-.39.86-.54.12-.04.39.22.8.46"/>
      <path id="Tracé_179" data-name="Tracé 179" d="m123.28,26.42v-2.15h.2s0,2.14,0,2.14h-.2"/>
    </g>
  </g>
</svg>