<!--?xml version="1.0" standalone="no"?-->
              <svg id="sw-js-blob-svg" viewBox="0 0 100 100" xmlns="http://www.w3.org/2000/svg" version="1.1">
                    <defs> 
                        <linearGradient id="sw-gradient" x1="0" x2="1" y1="1" y2="0">
                            <stop id="stop1" stop-color="rgba(201, 161, 255, 1)" offset="0%"></stop>
                            <stop id="stop2" stop-color="rgba(142, 202, 230, 1)" offset="100%"></stop>
                        </linearGradient>
                    </defs>
                <path fill="url(#sw-gradient)" d="M19.2,-23.9C25.4,-17.7,31.1,-12.1,33.3,-5.1C35.4,1.9,33.9,10.3,30.4,18.5C26.8,26.6,21.1,34.6,13.7,36.8C6.4,39.1,-2.7,35.8,-11.4,32.2C-20.1,28.7,-28.4,24.9,-32.2,18.5C-36,12.1,-35.4,3,-33.5,-5.5C-31.5,-14,-28.2,-21.8,-22.4,-28C-16.6,-34.2,-8.3,-38.9,-0.9,-37.8C6.5,-36.8,13.1,-30.1,19.2,-23.9Z" width="100%" height="100%" transform="translate(50 50)" stroke-width="0" style="transition: all 0.3s ease 0s;" stroke="url(#sw-gradient)"></path>
              </svg>