<svg xmlns="http://www.w3.org/2000/svg" xmlns:xlink="http://www.w3.org/1999/xlink" width="2010" height="838" viewBox="0 0 2010 838">
  <defs>
    <clipPath id="clip-path">
      <rect id="Rectangle_166" data-name="Rectangle 166" width="2010" height="838" transform="translate(0 0)" fill="none"/>
    </clipPath>
  </defs>
  <g id="Group_45" data-name="Group 45" transform="translate(-0.042 0.3)">
    <g id="Group_44" data-name="Group 44" transform="translate(0.041 -0.3)" clip-path="url(#clip-path)">
      <path id="Path_67" data-name="Path 67" d="M1339.638,184.149c6.807-12.919,13.158-24.505,19.026-36.331a9.582,9.582,0,0,1,10.539-6.346c6.02.482,12.11.109,18.888.109a13.277,13.277,0,0,1-1.73-2.848c-.452-1.776-1.395-4-.716-5.307.587-1.127,3.125-1.676,4.813-1.722,10.083-.151,20.165-.075,31-.075-.39,3.431-.725,6.4-1.127,9.915,1.864.092,3.531.243,5.2.239q87.17-.1,174.344-.276a7.6,7.6,0,0,1,7.54,4.453q20.107,38.756,40.3,77.458c1.29,2.471,2.513,4.993,3.9,7.393,3.305,5.617,3.083,6.309-3.246,8.8-8.952,3.544-8.952,3.544-8.952,13.2v10.263c2.149-.7,3.9-1.089,5.5-1.8,38.819-17.313,77.81-34.27,116.319-52.245,10.757-5.027,20.45-1.856,30.538-.36,12.215,1.81,24.3,4.532,37.893,7.142,0-6.589.218-12.755-.184-18.88-.079-1.194-2.656-2.149-3.938-3.351-1.37-1.294-2.572-2.765-3.849-4.16,1.588-.938,3.162-2.66,4.767-2.685,12.567-.2,25.134-.218,37.667.08,2.145.05,5.693,1.487,6.07,2.932.758,2.932-2.228,3.389-4.763,4.03a5.22,5.22,0,0,0-2.765,4.038,201.378,201.378,0,0,0,.67,20.911c.13,1.445,2.513,3.519,4.189,3.85,13.321,2.689,26.713,5.027,40.08,7.486,7.272,1.345,9.756,3.653,10.368,9.061.452,4-.318,6.577-5.136,5.865a14.8,14.8,0,0,0-3.1.314v12.986c-.021,27.228.075,54.456-.18,81.684-.046,5.232,1.793,6.51,6.665,6.283,8.014-.364,16.06.092,24.078-.167,3.958-.126,5.257,1.567,5.4,5.165.159,4.114-2.3,4.239-5.446,4.239q-112.574,0-225.147.067-825.2,0-1650.4-.038c-16.228,0-32.46-.209-48.688-.3-2.735,0-5.668,0-5.647-3.711.021-3.561,2.249-5.245,5.814-5.224,6.246.034,12.491,0,19.118,0V259.131a2.663,2.663,0,0,0-.754-.473c-2.639-.7-6.7-.557-7.632-2.2-1.973-3.54.138-7.083,3.485-9.346,13.434-9.082,26.688-18.461,40.478-26.977,6.786-4.189,10.72-8.755,9.216-17.045a45.143,45.143,0,0,1-.075-8.378c.034-3.745.955-7.8-4.939-8.378-.922-.088-2.212-3.351-2.094-5.027.092-1.315,2.094-3.561,3.276-3.582,13.216-.26,26.441-.163,41.156-.163-2.375,5.4-4.273,9.714-6.175,14.037l.993.767c2.027-1.458,4.021-2.97,6.091-4.365,14.322-9.63,28.715-19.177,42.912-28.992a6.96,6.96,0,0,1,9.291.419c18.184,12.613,36.565,24.933,55.558,37.818,1.089-2.991,1.927-5.178,2.685-7.389,7.083-20.584,14.2-41.161,21.188-61.774a5.443,5.443,0,0,1,6.032-4.34q154.717.082,309.437-.126a6.164,6.164,0,0,1,7.067,5.056c2.932,9.417,6.283,18.7,9.811,29.05,1.9-2.3,3.225-3.8,4.44-5.387,6.56-8.6,13.271-17.091,19.554-25.888a11.537,11.537,0,0,1,10.581-5.165q68.326.226,136.656.159c4.708,0,9.425.025,14.129-.2a13.466,13.466,0,0,0,3.9-1.47,42.611,42.611,0,0,0-1.726-4.088c-.3-.553-1.257-.741-1.613-1.286-1.106-1.625-2.073-3.351-3.1-5.027,1.755-.838,3.494-2.4,5.274-2.451q13.6-.421,27.228-.063A15.931,15.931,0,0,1,803,109.259c-.863,1.8-1.638,3.64-2.635,5.358-.419.712-1.516,1.026-1.906,1.738a6.71,6.71,0,0,0-1.139,3.64c.071.557,1.956,1.227,3.037,1.257,6.627.159,13.262.364,19.885.155,20.312-.637,20.254-.666,32.561,15.353,7.121,9.266,14.444,18.368,21.7,27.53a11.189,11.189,0,0,0,1.651,1.395L962.256,65.468l26.558,31.157c1.9-5.446,1.81-9.086-1.408-12.315a12.768,12.768,0,0,1-1.7-1.973c-2.706-4.189-1.34-7.142,3.548-7.247q10.99-.233,21.984.075c1.5.046,4.013,1,4.235,1.96a6.7,6.7,0,0,1-1.005,5.668,11.633,11.633,0,0,0-3.628,10.828,139.69,139.69,0,0,1,.1,16.22,28,28,0,0,0,9.136,23.844c6.748,6.782,12.567,14.494,18.808,21.783,1.228,1.428,2.555,2.769,4.524,4.9,1.893-4.474,3.623-8.177,5.048-11.993,5.722-15.336,11.478-30.663,16.915-46.1,1.34-3.8,3.523-4.394,7.067-4.377q45.284.2,90.573.025a9.015,9.015,0,0,0,5.387-2.379c6.087-5.467,11.947-11.18,18.373-17.258,4.5,4.306,9.3,8.353,13.434,12.986a20.652,20.652,0,0,0,17.133,6.929c27.915-.3,55.839-.038,83.779-.218a6.4,6.4,0,0,1,7.193,4.909c9.45,25.649,19.135,51.214,28.782,76.792a40.254,40.254,0,0,0,2.555,4.491m49.58,86.694c-13.6,0-26.294-.1-38.982.189-1.03,0-2.832,2.66-2.865,4.118-.247,10.8-.033,21.611-.209,32.414-.05,3.251,1.16,4.323,4.244,4.306,11.507-.075,23.014.054,34.517-.142,1.114-.021,3.138-1.759,3.154-2.727.214-12.5.142-25.016.142-38.157M441.683,180.216H417.132c-2.585,0-4.122.775-4.076,3.95.151,10.255.05,20.526-.08,30.764-.038,3.133.838,5.027,4.348,4.964,6.778-.1,13.568.1,20.325-.272,1.4-.08,3.829-2.094,3.858-3.288.293-11.6.176-23.215.176-36.121m-32.527,19.759h-.142c0-4.884-.356-9.8.1-14.636.419-4.269-1.466-5.081-5.052-4.943-6.283.239-12.567.452-18.825.331-3.4-.067-4.608,1.039-4.562,4.486.168,9.936.113,19.877,0,29.817-.029,3,.917,4.608,4.134,4.608q10.2-.038,20.4.109c3.263.042,4.122-1.567,4-4.608-.209-5.048-.059-10.108-.059-15.164m410.785,40.562v-.038c3.837,0,7.682-.205,11.5.054,3.992.272,5.58-.88,5.379-5.245-.335-7.3-.1-14.628.2-21.933.13-3.213-.963-4.436-4.109-4.415-8.537.063-17.078.08-25.615-.071-3.146-.054-3.77,1.424-3.745,4.164.046,7.666,0,15.336-.247,23-.109,3.477,1.307,4.658,4.608,4.524,4-.163,8.018-.038,12.022-.038m-54.1-31.308c0,9.752-.1,19.106.151,28.447.025.989,2.124,2.714,3.3,2.748q13.038.364,26.093.025c1.206-.033,3.376-1.709,3.4-2.668.256-9.48.155-18.963.155-28.552ZM643.8,210.267c-8.717,0-16.865-.075-25,.109a3.5,3.5,0,0,0-2.467,2.379c-.184,8.445-.113,16.9-.113,25.812H643.8Zm48.152,28.221c8.562,0,16.731.109,24.882-.142a4.284,4.284,0,0,0,2.932-3c.235-6.962.23-13.945-.109-20.9-.067-1.382-1.877-3.77-2.957-3.833-8.118-.323-16.257-.176-24.748-.176Zm-.046,51.26v28.1c8.617,0,16.932.117,25.234-.155.959-.034,2.61-2.208,2.652-3.431.222-6.958.218-13.937-.121-20.886a4.815,4.815,0,0,0-3.138-3.464c-8.131-.3-16.27-.163-24.627-.163m-75.4,0v28.02c8.261,0,16.22.142,24.166-.151a4.84,4.84,0,0,0,3.422-3.234c.331-6.933.327-13.895.025-20.832-.059-1.307-1.931-3.594-3.033-3.636-8.106-.314-16.224-.168-24.581-.168m470.959-62.29h-.264c0,3.837.134,7.678-.046,11.507-.126,2.769.922,3.686,3.64,3.6,5.228-.168,10.472-.155,15.7-.025,2.953.075,4.558-.653,4.512-4.046-.109-7.314,0-14.636.188-21.95.067-2.807-1.165-3.649-3.77-3.611-5.4.071-10.808,0-16.211-.075-2.9-.042-4,1.2-3.8,4.147.23,3.468.054,6.97.054,10.472m173.7-14.314c0,8.956-.113,17.594.151,26.256.033,1.005,2.094,2.7,3.322,2.781a113.557,113.557,0,0,0,15.612.142c1.454-.1,3.929-2.094,3.979-3.288.348-8.466.185-16.957.185-25.892Zm-146.106,29.2H1137v-29.1h-21.95Zm196.52-.13c0-9.1.126-17.594-.159-26.068-.034-1.114-2.124-2.987-3.351-3.079a126.821,126.821,0,0,0-15.608-.142c-1.257.063-3.485,1.6-3.527,2.513-.348,7.8-.419,15.629-.188,23.433a4.822,4.822,0,0,0,3.443,3.175c6.208.327,12.441.147,19.407.147m-75.447-29.264c0,9.04-.109,17.723.138,26.39a4.377,4.377,0,0,0,3,3.024c4.688.31,9.409.063,14.117.063,3.28,0,4.608-1.546,4.57-4.863-.084-6.794.042-13.593.193-20.388.071-3.158-1.328-4.336-4.419-4.264-5.563.126-11.134.034-17.594.034M1062.091,226.73h-.142v12.022c0,2.476.808,3.825,3.695,3.695,4.692-.218,9.4-.189,14.1,0,2.782.121,3.749-.934,3.711-3.6-.1-7.318-.176-14.636-.071-21.954.042-3-1.286-3.975-4.063-3.975-4.528,0-9.061-.142-13.585-.306-2.614-.1-3.816.88-3.682,3.657.172,3.477.042,6.966.042,10.472m715.363,66.772c-8.721,0-16.881-.113-25.033.138a4.384,4.384,0,0,0-3.008,3,128.191,128.191,0,0,0-.092,15.118c.05,1.064,1.612,2.932,2.513,2.932,8.449.23,16.906.134,25.615.134ZM188.491,297.741h33.675V280.4c-10.158,0-20.019-.113-29.871.134a4.827,4.827,0,0,0-3.628,2.932c-.419,4.608-.176,9.3-.176,14.28M1718.054,314.5h27.132V293.849h-27.132Zm45.2-24.8h4.189c12.567,0,9.823.364,10.414-9.861.079-1.387-.138-2.8,0-4.189.452-4.189-1.072-6.036-5.542-5.806a118.4,118.4,0,0,1-16.714-.113c-5.027-.452-6.522,1-6.376,6.17.394,13.895.138,13.9,14.033,13.79m-17.991-19.629h-27.421v19.688h27.421Zm-255.9,21.82c0,5.027.226,10.1-.071,15.122-.234,4,1.412,5.408,5.144,5.06a26.108,26.108,0,0,1,4.164-.235c3.611.243,4.792-1.257,4.7-4.909-.239-9.907-.234-19.822-.054-29.742.071-4.08-1.437-5.827-5.492-5.4a27.651,27.651,0,0,1-4.164.176c-3.066-.151-4.407,1.056-4.289,4.281.188,5.207.05,10.426.059,15.642m-1174.94-63.5c-5.412,0-10.267-.281-15.047.188a5.446,5.446,0,0,0-3.351,3.917,98.693,98.693,0,0,0-.1,11.461c-.071,14.393-.08,14.393,14.36,13.648.176,0,.419.08.511,0,1.227-1.257,3.422-2.513,3.473-3.871.327-8.139.163-16.3.163-25.335m1151.08,64.388h.163c0-5.215-.084-10.435.033-15.646.071-3.217-.54-5.994-4.465-4.956-3.322.88-9.174-2.417-9.115,4.985.063,8.688-.067,17.376-.122,26.064-.059,9.245-.063,9.245,9.216,8.684a3.651,3.651,0,0,1,.524,0c2.932.235,3.963-1.056,3.841-4-.2-5.027-.054-10.083-.054-15.126M1434.383,311.9c3.045,0,5.94-.109,8.818.029,3.351.159,4.608-1.123,4.537-4.579-.226-10.284-.075-20.576-.327-30.86-.034-1.232-1.512-3.351-2.513-3.477a82.875,82.875,0,0,0-10.5-.163ZM293.24,228.7c-4.75,0-9.551.1-14.343-.038-2.932-.08-3.984,1.123-3.921,4.026.151,7.121-.046,14.242.218,21.364.046,1.19,1.646,3.251,2.639,3.318,4.981.344,10,.159,15.407.159Zm214.868,0v28.77c5.446,0,10.472.159,15.428-.138a4.058,4.058,0,0,0,2.61-2.932q.377-11.442.071-22.9a3.938,3.938,0,0,0-2.765-2.66c-4.972-.281-9.965-.126-15.344-.126M1509.165,272.77v39.25c2.094,0,3.77.067,5.487,0,7.67-.348,7.636-.36,7.607-7.8-.021-6.61.046-13.216.063-19.822V272.779ZM281.624,182.055c0,5.5.251,10.183-.08,14.829-.285,4.013,1.583,4.721,4.981,4.608a143.976,143.976,0,0,1,16.023.054c3.749.293,5.14-.943,5.127-4.528a99.5,99.5,0,0,0,.159-10.426c-.172-1.6-1.885-4.277-3.008-4.331-7.729-.381-15.5-.2-23.2-.2M1526.884,311.6c3,.155,5.069.163,7.121.385,4.373.469,6.329-.989,6.024-5.793-.419-6.25-.076-12.542-.071-18.817V271.924a67.713,67.713,0,0,0-9.668.142c-1.257.193-3.234,1.9-3.255,2.932-.23,11.985-.147,23.973-.147,36.582m-997.97-53.966c5.2,0,9.534-.088,13.865.025,3.246.088,4.3-1.558,4.231-4.516-.088-3.661-.084-7.326-.08-10.988.021-14.6.025-14.6-14.762-13.4-.172,0-.419-.071-.511,0-.93.938-2.6,1.885-2.622,2.865-.214,8.34-.121,16.685-.121,26.022m942.416,15.755c0,11.465.26,22.62-.138,33.742-.138,3.963,1.148,5.027,4.608,4.784a26.9,26.9,0,0,1,4.189-.05c3.577.314,4.951-1.081,4.822-4.8-.277-7.838-.151-15.692-.2-23.533-.08-12.655-.084-12.655-12.806-10.451-.155.025-.285.18-.482.31M189.044,276.143h33.369a85.264,85.264,0,0,0,.62-10.234c-.063-1.257-1.642-3.5-2.572-3.519-10.359-.251-20.727-.159-31.417-.159Zm351.762-84.323a24.208,24.208,0,0,1,.025-3.657c.8-5.06-1.328-6.9-6.329-6.426a82.568,82.568,0,0,1-11.783.176c-8.315-.419-8.34-.49-8.328,7.959,0,2.442.13,4.884.055,7.322-.1,3.389,1.37,4.679,4.771,4.352a43.561,43.561,0,0,1,10.259-.268c10.7,1.567,11.214,1.278,11.331-9.467M99.631,277.144c-6.049,0-11.729.084-17.434-.038-3.024-.063-3.887,1.822-3.171,3.971,1.491,4.516-3.95,11.373,2.89,13.463,5.341,1.634,11.582.327,17.715.327Zm1496.517,28.267c0-5.4.281-10.393-.172-15.319a5.62,5.62,0,0,0-3.556-4.009,98.778,98.778,0,0,0-12.793-.193c-.293,5.735-.741,11.067-.691,16.391a4.322,4.322,0,0,0,2.974,2.987c4.432.343,8.91.142,14.242.142m20.945-19.449c-4.608,0-8.591.138-12.567-.046-2.84-.134-4.231.838-4.248,3.77-.025,4.5-.3,9.01-.126,13.5.034.762,1.764,2.036,2.761,2.095,4.608.222,9.27.1,14.18.1Zm-21.3-22.528h-4.742c-12.529-.054-12.63-.05-12.064,12.324.071,1.554,1.868,4.323,2.84,4.315a116.754,116.754,0,0,0,13.924-1.47,7.628,7.628,0,0,0,.042-1.483V263.433M168.2,297.783h16.752c-.444-6.175-.838-11.788-1.294-18.012l-15.44,1.257Zm1431.928-33.206c0,3.887-.134,8.529.117,13.149a3.583,3.583,0,0,0,2.513,2.425c4.775.247,9.576.117,14.339.117.163-20.254,3.77-16.7-15.541-16.7-.134,0-.272.184-1.424,1.01m219.559,12.814c.335,10.711-1.914,8.981,11.763,9.015,8.968,0,4.227-7.071,4.629-10.912.6-5.751.042-5.6-11.93-5.73-7.163-.08-3.611,5.027-4.461,7.628m36.691,8.638c4.717,0,8.872.222,12.986-.134,1.219-.109,3.28-1.852,3.267-2.823a120.907,120.907,0,0,0-1.223-12.952c0-.142-.959-.18-1.474-.255-12.986-1.852-13.937-1.064-13.794,11.729,0,1.361.146,2.723.247,4.419M943.867,164.243c.021,8.994.021,8.994,8.8,9.191a19.524,19.524,0,0,1,2.095.075c2.618.218,4.788-.482,4.3-3.569-.721-4.608,3.393-10.648-2.2-13.547a18,18,0,0,0-11.645.184c-1.047.276-.926,4.989-1.34,7.666m34.379-8.231c-4.918,0-8.885-.092-12.843.084-.8.034-2.2,1.081-2.216,1.676a53.211,53.211,0,0,0,.515,14.452c.3,1.165,6.25.888,9.605,1.257.515.059,1.219.209,1.537-.05,1.2-.98,3.15-2.044,3.246-3.2.373-4.608.155-9.27.155-14.217m34.68,87.348c.867-18.251,3.041-19.072-13.639-16.458-.285.046-.524.39-.993.762a120.966,120.966,0,0,0,.159,12.265,4.85,4.85,0,0,0,3.292,3.276,92.2,92.2,0,0,0,11.18.155M979.5,227.161c0,2-.042,4.227,0,6.451.251,10.795.419,10.891,11.49,9.216.172-.025.419.042.507-.046.918-.838,2.371-1.55,2.631-2.564,2.953-11.679-1.734-16.454-13.4-13.823a5.77,5.77,0,0,0-1.223.767m18.641,88.584c16.8.838,15.139,3.649,15.139-12.5,0-.172.08-.419,0-.511-1.068-1.232-2.166-3.481-3.251-3.481a87.459,87.459,0,0,0-11.817,1.32,6.134,6.134,0,0,0-.063,1.466v13.71m-58.134-89.706c-4.687,0-8.332-.168-11.943.1-1.026.075-2.786,1.412-2.8,2.195a44.27,44.27,0,0,0,.917,14.188c.365,1.127,6.971.473,10.661.13a4.349,4.349,0,0,0,3.02-2.932c.348-4.432.147-8.91.147-13.694m-7.921,73.152c-7.306,0-7.121,0-7.414,11.817-.2,8.039,5.693,4.738,9.182,5,6.413.486,6.438.151,6.43-7.075,0-9.735,0-9.735-8.2-9.744m-10.891,8.3.544-.138c-.7-2.689-.867-7.339-2.2-7.7a28.7,28.7,0,0,0-12.236,0c-.741.134-.917,4.658-.972,7.163-.235,11.235-.838,8.83,9.371,9.446,4.524.272,5.932-1.516,5.5-5.638a29.722,29.722,0,0,1,0-3.117m58.4-8.206v7.5c0,9.794,2.136,11.582,11.855,9.174a5.517,5.517,0,0,0,2.9-4.377,98.382,98.382,0,0,0-1.851-12.2c0-.059-.318-.092-.49-.092H979.611m-811.4-22.8c4.671,0,8.985.138,13.275-.109a3.613,3.613,0,0,0,2.668-2.237c.285-3.887.126-7.812.126-12.148h-16.06ZM906.3,234.676c.126,8.742-1.194,8.411,8.512,8.2a24.453,24.453,0,0,0,3.632-.1c.762-.134,2.044-.746,2.061-1.177.147-4.658.18-9.329,0-13.987-.025-.6-1.441-1.416-2.342-1.676-8.164-2.3-11.892.486-11.846,8.742m70.847-98.859c-3.988,0-7.791-.126-11.574.092-.892.054-2.383,1.19-2.467,1.948a51.041,51.041,0,0,0-.3,10.334,4.4,4.4,0,0,0,3.167,2.932c13.585-.733,13.254.75,11.834-11.951-.113-.993-.381-1.973-.658-3.351m-826.261,84.5a71.864,71.864,0,0,0-.444,9.911c.088,1.047,2.053,2.647,3.28,2.769,3.611.356,7.3-.067,10.937.134,3.494.189,4.729-1.286,4.39-4.608a23.166,23.166,0,0,0-.188-5.165,4.823,4.823,0,0,0-3.138-2.895c-4.8-.323-9.635-.134-14.837-.134M310.373,324.4c0-4.951.05-9.249-.054-13.547,0-.729-.666-2.04-1.089-2.065a40.579,40.579,0,0,0-11.264-.042c-1.072.239-1.676,4.474-1.772,6.9-.318,8.73-.2,8.734,8.378,8.751h5.8M952.521,135.976c-3.393,1.047-9.471-2.258-8.24,5.085.628,3.737-2.907,10.146,4.583,10.552,9.446.507,10.292-.645,10.435-12.613.071-6.082-4.859-1.3-6.778-3.024M145.952,220.312c-4.868,0-9.346-.117-13.824.08-1.135.05-3.192,1.114-3.179,1.676.063,3.494,0,9.764,1.077,9.991a66.662,66.662,0,0,0,15.235.256c.235,0,.641-.838.649-1.307.054-3.573.029-7.146.029-10.7m365.544,96.274c0,7.959,0,7.959,6.748,7.959,7.368.038,7.54-.339,7.678-10.891.059-4.214-1.826-5.408-5.739-5.232-10.012.457-8.566-.88-8.688,8.143m501.7-22.985c0-2.266-.084-4.155,0-6.032.461-8.537,1.177-8.545-8.206-8.487-7.121.046-7.121,0-6.882,7.444.067,2.22,0,4.444,0,7.075Zm.042-87.243H998.457v10.317c0,3.05,1.529,4.231,4.562,4.252,10.338.08,10.334.142,10.208-10.02v-4.549m-87.8-.4a107.336,107.336,0,0,0-.687,11.541,4.4,4.4,0,0,0,2.9,3.133,43.706,43.706,0,0,0,9.844-.159,3.844,3.844,0,0,0,2.446-2.513c2.094-9.488.05-12.035-9.408-11.989h-5.1m-396.354,118.2h14c0-2.367.029-4.26,0-6.158-.205-12.391,1.412-9.358-10.472-9.3a4.791,4.791,0,0,0-3.372,3.209,112.815,112.815,0,0,0-.163,12.253m395.947-38.015c-.1,7.687-.1,7.687,4.654,7.745,10.259.13,10.556-.025,10.569-5.471,0-9.077,0-8.709-10.317-9.367-6.581-.419-4.574,3.858-4.905,7.092m-4.093-6.945c-4.059,0-8-.159-11.9.117a3.851,3.851,0,0,0-2.622,2.413c-2.409,9.744-.281,12.4,9.513,12.236.691,0,1.579.243,2.04-.088,1.1-.787,2.74-1.784,2.836-2.815.339-3.724.134-7.5.134-11.863m0-73.277c-3.833,0-7.1-.029-10.359,0-1.336,0-2.673.193-4.294.323,0,3.892.084,7.507-.025,11.113-.092,3.054,1.294,3.77,4.189,3.6,10.234-.536,10.242-.419,10.472-10.644.034-1.19,0-2.384,0-4.411m58.54,79.385c-.054,9.329-1.353,8.6,7.595,8.721,7.381.1,7.381.025,7.41-8.474,0-6.484,0-6.137-9.191-6.66-6.095-.348-6.564,2.668-5.814,6.413M292.457,324.366c.117-2.513.205-4.243.276-5.965.448-10.644-.172-11.277-10.707-9.8-1.169.163-3,1.563-3.083,2.513a65.164,65.164,0,0,0,.067,10.925,3.248,3.248,0,0,0,2.249,2.212c3.582.247,7.192.109,11.2.109M979.5,205.932c0,2.048-.025,3.569,0,5.09.226,10.292,1.227,11.143,11.624,9.513,1.039-.163,2.773-1.018,2.811-1.642a34.3,34.3,0,0,0-.276-11.218c-.327-1.165-4.679-1.361-7.226-1.676a59.8,59.8,0,0,0-6.933-.067m-669.272,84.2c-17.007-.88-13.748-1.441-14.376,9.752-.021.344-.117.838.067,1.014,1.118,1.047,2.27,2.811,3.485,2.874a92.522,92.522,0,0,0,10.824-.582Zm218.969-.419a81.111,81.111,0,0,1-.08,9.991c-.536,4.093,1.449,4.859,4.8,4.478a18.731,18.731,0,0,1,4.13-.394c4.863.544,5.781-1.617,5.353-6.116-.838-8.625.369-8.114-8.6-7.959-1.537.025-3.079,0-5.609,0M151.352,215.746h17.656a70.832,70.832,0,0,0-.117-8.487A3.663,3.663,0,0,0,166.5,204.7c-4.935-.251-9.886-.121-15.147-.121Zm-5.655-11.2c-4.189,0-8.474.138-12.751-.042-3.51-.142-4.537,1.575-4.52,4.742.038,7.959,1.135,7.863,6.753,6.581a10.946,10.946,0,0,1,2.094-.113c9.635-.209,9.635-.209,8.441-11.168M278.951,290a94.465,94.465,0,0,0,.151,10.891,4.472,4.472,0,0,0,3.142,2.844,83.912,83.912,0,0,0,10.108.134V289.991Zm232.822-.318v13.053c12.843,3,13.656,2.438,13.824-7.582.067-4.31-1.324-6.045-5.7-5.525a70.856,70.856,0,0,1-8.114.054m676.431,28.485c.59,2.4-1.944,6.7,3.938,6.669,9.76-.084,9.748,0,9.835-9.262.076-8.1-6.187-3.866-9.509-4.549-6.283-1.294-3.77,3.866-4.264,7.121m87.318,6.338c3.741,0,7,.1,10.259-.059,1.077-.054,3.037-.792,3.041-1.236a46.054,46.054,0,0,0-.779-11.2c-.209-.867-3.833-1.018-5.915-1.3-5.064-.7-7.473,1.257-6.656,6.644a52.217,52.217,0,0,1,.05,7.151m-160.793-.071a76.636,76.636,0,0,1,.054-8.378c.515-4.31-1.353-5.676-5.366-5.14a42.9,42.9,0,0,0-5.186.3c-1.106.3-2.765,1.5-2.79,2.337a28.784,28.784,0,0,0,.892,10.2c.327.934,4.608.528,7.058.653,1.554.08,3.112,0,5.337,0m70.152-6.162c0-7.385-.226-7.393-8.667-7.586-5.06-.113-4.985,2.966-5.027,6.48-.067,4.285-.042,7.921,6.082,7.611,7-.352,7.611-.524,7.62-6.505m80.34-7.381c-3.77-.57-7.565-.247-6.97,5.5.344,3.272-1.877,8.638,4.784,8,3.477-.331,8.943,2.7,9.01-4.788.075-8.177.075-8.466-6.824-8.709M1194.7,295.014c-2.115.922-7.259-2.178-6.342,3.938.457,3.041-3.037,8.948,3.858,8.328,3.473-.31,9.974,3.351,10.141-4.717.155-7.456.092-7.456-7.657-7.54m-103.777,29.532c3.494-.05,7.394,1.123,7.146-5.027-.306-7.6-.645-8.076-8.684-8.667-5.668-.419-5.027,3.2-5.073,6.7-.092,6.849-.109,6.849,6.61,6.979m379.56-69.226c.838,5.295.155,10.707,2.308,12.29a12.886,12.886,0,0,0,11.159-.168c1.487-.725,1.81-8.638.553-9.3a49.988,49.988,0,0,0-14.02-2.828m25.431.8c-2.388.8-7.678-1.847-6.7,4.264.456,2.932-2.48,8.508,4.448,8.378,9.245-.184,9.429-.5,9.76-7.959.272-6.045-3.883-4.336-7.486-4.687m-324.011,51.105a62.564,62.564,0,0,0,9.944-.18,4.676,4.676,0,0,0,2.765-3.7c-.419-2.744,2.271-6.673-2.12-8.152-8.256-2.777-11.675-.142-11.138,8.319.075,1.173.339,2.329.549,3.716m-65.042.046c8.152-.1,8.219-.147,8.168-5.24-.067-7.054-.147-7.063-7.368-7.088-3.879,0-7.226-.218-6.648,5.584.444,4.453.231,8.457,5.865,6.744m401.971-51.21c-.188,2.094-.352,3.276-.394,4.465-.26,7.452.771,8.277,10.158,7.863,5.789-.251,3.657-4.712,3.959-7.787.356-3.632-1.433-4.93-4.994-4.608-2.727.26-5.5.05-8.73.05M1263.994,306.9c4.26.419,8.5,1.2,7.888-5.006-.3-3.016,1.717-7.272-4.386-7.2-8.219.092-9.216.377-9.35,5.328-.113,4.239-.189,8.52,5.865,6.878M427.06,244.311v.1c3.816,0,7.649.2,11.436-.13,1.005-.088,2.287-1.676,2.618-2.8.172-.57-1.462-2.4-2.333-2.438-7.444-.314-14.9-.478-22.344-.318-1.026.025-2.011,2.057-3.016,3.158,1.081.813,2.094,2.22,3.246,2.321,3.439.31,6.924.113,10.393.113m855.349,62.65c3.607.3,7.54.452,7.042-5.793-.465-5.919-.867-6.376-8.4-6.246-2.932.05-5.911-.637-5.542,4.306.591,7.85.3,7.871,6.9,7.733m176.283-38.89c6.7.205,6.665.025,7.326-8.022.356-4.327-2.354-4.164-4.926-3.8-3.452.482-9.061-3.091-9.09,4.608-.025,6.761.063,7.033,6.7,7.234m67.32-11.57c.385,3,.779,5.383.972,7.779.595,7.293,5.995,2.878,9.157,3.661,3.351.838,3.925-1.546,3.975-4.369.142-7.607-.142-7.959-7.775-7.435-1.877.126-3.77.218-6.33.364m-441.158,50.226c1.965,0,3.686-.038,5.408,0,6.732.184,9.187-2.71,7.649-9.337a3.693,3.693,0,0,0-2.342-2.174c-9.341-2.329-11.88-.172-11.281,9.4a15.009,15.009,0,0,0,.566,2.094m355.888-38.957c6.455.1,6.325-.034,6.774-5.542.39-4.754-1.319-6.958-6.057-6.38-3.192.39-7.72-1.474-7.5,4.863.234,6.857.025,6.962,6.786,7.058M395.869,235.623v.352a79.768,79.768,0,0,0,8.839-.1,14.137,14.137,0,0,0,4.189-2.094c-1.336-1.131-2.639-3.179-4.013-3.23-6.761-.247-13.543-.067-20.308.226-1.131.05-2.2,1.412-3.3,2.17,1.039.884,2.019,2.438,3.121,2.513,3.8.314,7.636.121,11.457.121m-13.87,3.644c-.725,2.832-.938,4.909,2.974,4.905,6.774,0,13.551.419,20.325.356,1.16,0,2.3-1.646,3.452-2.513-.976-.909-1.927-2.576-2.932-2.605-7.791-.218-15.591-.121-23.823-.121m60-6.581L441,231.312c-5.7-.327-11.4-.7-17.1-.951a37.069,37.069,0,0,0-7.77.134c-1.144.2-2.044,1.818-3.054,2.79,1.068.783,2.12,2.212,3.213,2.245,7.285.222,14.586.293,21.866.029,1.307-.046,2.551-1.881,3.824-2.89M427.7,251.914c3.816,0,7.641.092,11.453-.075a2.753,2.753,0,0,0,2.061-1.634c.126-.683-.788-2.233-1.294-2.254-8.307-.343-16.617-.565-24.928-.586-.624,0-1.8,1.759-1.717,2.6.071.725,1.55,1.818,2.455,1.864,3.98.205,7.959.088,11.972.084m-16.756.042c-1.893-2.182-2.714-4-3.628-4.047-7.959-.419-15.964-.582-23.952-.6-.754,0-2,1.479-2.094,2.371-.075.674,1.315,2.161,2.094,2.174,8.642.159,17.284.1,27.605.1m30.236-29.641c-9.865,2.178-19.357-.984-28.334,1.78l.05,2.513h28.016c.029-.486.113-1.78.268-4.281m360.836,82.581a11.27,11.27,0,0,0-4.122.092,30.112,30.112,0,0,0-4.909,3.28c1.554,1.458,2.89,3.619,4.721,4.189a15.072,15.072,0,0,0,7.708.109,5.594,5.594,0,0,0,3.565-3.661c.8-6.2-3.841-4.017-6.962-4.017M382.1,222.93c-1.081,3.2-.155,4.394,2.966,4.373,6.941-.05,13.891.2,20.827.046,1.219-.025,2.413-1.4,3.615-2.157-1.349-.754-2.681-2.124-4.051-2.161-7.628-.214-15.265-.1-23.358-.1m979.7,33.269c1.085,4.109,1.014,8.131,2.962,9.819a8.422,8.422,0,0,0,8.219-.775c1.738-1.583,1.361-5.483,2.036-9.044h-13.216m-7.264-.1c-4,.285-7.8-.62-7.54,4.319.142,3.062.058,6.329,4.876,6.166,4.227-.147,6.861-1.047,6.807-6.049-.042-3.887-1.805-4.821-4.122-4.436m29.762,10.175c4.327.792,5.215-2.2,5.341-5.542.142-3.77-2.316-5.169-5.676-5.2-3.607-.033-5.689,1.257-5.517,5.517.163,4.072,1.764,5.726,5.865,5.228m-269.349-1.676c-.18,1.131-.373,1.521-.268,1.8.679,1.872,1.324,5.257,2.153,5.307a24.657,24.657,0,0,0,10.376-1.257c2.032-.813.31-5.538-2.325-5.789-3.33-.318-6.7-.075-9.936-.075m184.087,8.177,1.571-1.366c-.419-2.2-.419-6.036-1.386-6.283a23.5,23.5,0,0,0-9.685-.08c-.624.1-1.257,4.8-1.01,4.884,3.414,1.206,6.983,1.977,10.51,2.853m-47.281,1.1c2.794-2.425,6.045-3.954,6.053-5.5.025-4.453-3.984-3.682-7.046-3.883-2.794-.184-5.475.5-4.7,3.665.469,1.9,3.129,3.267,5.688,5.722M1119.224,263c3.305-1.856,7.054-2.727,7.582-4.537.838-2.853-2.094-4.675-5.094-3.992-2.706.616-7.088-.616-7.071,4.047,0,1.345,2.647,2.677,4.583,4.482m-41.014,1.525c-2.9-.193-5.538-.323-5.391,3.674.121,3.293,2.032,4.126,4.838,3.741,2.488-.339,6.162,1.043,6.359-3.259.193-4.1-2.719-4.608-5.806-4.155m14.7.05c-2.932-.071-5.919-.549-5.865,3.833.046,3.628,2.4,3.724,4.981,3.569,2.48-.151,5.63.62,5.8-3.385.147-3.506-1.893-4.537-4.922-4.017m18.343.733-1.571-1.357a47.51,47.51,0,0,0-8.286,2.379c-.482.222-.021,4.7.737,4.947a11.14,11.14,0,0,0,7.482.218c1.257-.586,1.135-4.03,1.638-6.187m183.346-2.363c2.693-1.906,6-3.15,6.041-4.486.1-3.8-3.351-3.494-6.133-3.431-2.463.054-6.02-.838-5.613,3.07.163,1.6,3.272,2.882,5.705,4.847m-42.505-9.9-6.183,4.394c1.629,1.324,3.112,3.439,4.926,3.77,2.321.419,6.284,1.278,6.154-2.962-.042-1.55-2.752-3.033-4.9-5.211m13.614,21.079c2.874-2.752,5.513-4.105,6-6.011.8-3.129-1.864-3.85-4.637-3.711-2.572.126-5.76-.457-5,3.686.3,1.634,1.78,3.05,3.64,6.036m19.42-8.629-1.655-1.831a57.751,57.751,0,0,0-8.064,2.761,5.43,5.43,0,0,0,.306,4.026,12.361,12.361,0,0,0,7.28.926c1.257-.419,1.458-3.82,2.132-5.865m-211.646-11.256c-1.429,4.876-.222,7.28,4.034,7.05,2.187-.121,6.283,1.747,5.961-2.547-.549-7.033-6.673-2.157-9.995-4.5m16-.364-2.023,1.583c.457,1.952.511,5.312,1.449,5.58a20.654,20.654,0,0,0,8.127-.1c.448-.063,1.106-2.786.892-2.9-2.731-1.529-5.6-2.811-8.445-4.155M1266.4,263.1c2.333-2.451,3.975-4.084,5.383-5.9.084-.1-1.99-2.6-2.622-2.417a63.73,63.73,0,0,0-7.93,3.267c1.382,1.345,2.761,2.693,5.169,5.048m13.04-.314,5.211-4.411c-1.675-1.3-3.255-3.494-5-3.623-1.382-.1-2.953,2.321-4.44,3.623l4.231,4.411m-173.2.36,4.574-4.926c-1.407-1.11-2.672-2.8-4.256-3.184-2.455-.595-5.391,0-5.081,3.318.134,1.416,2.513,2.618,4.763,4.792m-40.038-.963c-2.308,2.693-4.445,4.134-4.281,5.236.251,1.7,2.073,3.171,3.23,4.738,1.416-1.311,3.452-2.4,4.034-4.013.381-1.056-1.345-2.869-2.982-5.961m241.794,11.649c2.115-2.61,4.017-3.908,4.214-5.425.419-3.058-1.969-4.465-4.658-3.77-1.433.36-3.523,2.333-3.452,3.456.1,1.583,1.944,3.05,3.9,5.756m-173.573.172c1.764-2.844,3.489-4.4,3.3-5.663a5.493,5.493,0,0,0-3.351-3.77c-3.3-.737-4.13,1.952-3.77,4.478.2,1.3,1.759,2.4,3.8,4.964m166.112-23.349c-.084-.88-.172-1.759-.255-2.639a83.887,83.887,0,0,0-8.453-.616c-.787,0-1.9,1.257-2.191,2.17-.172.519,1.035,2.145,1.563,2.12,3.121-.155,6.229-.653,9.337-1.035m-179.2-3.075a9.291,9.291,0,0,0-3.485.08,19.4,19.4,0,0,0-3.427,2.76,19.092,19.092,0,0,0,3.824,1.219,18.715,18.715,0,0,0,5.027-.189,13.83,13.83,0,0,0,3.188-1.412c-.8-.859-1.462-2.015-2.451-2.488-.838-.419-2.04,0-2.685.029m121.66,17.342-1.462-1.068a15.939,15.939,0,0,0-5.379,2.6c-.649.7.037,3.464.984,4.541a5.418,5.418,0,0,0,4.1.7,40.609,40.609,0,0,0,1.76-6.769M1078.5,253.187l4.7-3.192c-1.458-.984-2.865-2.656-4.4-2.777-1.655-.134-3.427,1.177-5.148,1.86l4.843,4.109m60.9,5.525c-2.333-2.027-3.69-3.979-4.541-3.77a15.743,15.743,0,0,0-4.675,3.075c1.215,1.106,2.308,2.869,3.678,3.121,1.257.235,2.84-1.152,5.538-2.413m-46.82-5.517,5.236-3.351a17.339,17.339,0,0,0-5.529-2.723c-1.257-.126-2.706,1.717-4.067,2.677l4.361,3.385m216.032,9.781c1.579-2.337,3.46-4.021,3.137-4.9a5.129,5.129,0,0,0-3.845-2.962c-1.315.1-2.476,2.178-3.707,3.393l4.415,4.47m-65.075-3.921,1.424-2.719c-1.558-.632-3.284-2.011-4.608-1.709-1.571.356-2.811,2.182-4.189,3.372.984,1.081,1.927,3,2.953,3.05,1.449.063,2.958-1.257,4.441-1.994m-178.223,3.179,3.866-4.135c-1.223-1.056-2.568-3.066-3.64-2.932-1.391.176-2.564,2.065-3.833,3.213l3.607,3.854m181.469-14.3c1.931,3.879,5.923,5.324,8.487,3.38a3.74,3.74,0,0,0,1.211-2.6c0-.444-1.257-1.324-1.91-1.319-2.513,0-5.027.323-7.787.54m14.866,1.512c.159.54.318,1.081.473,1.621,6.137,2.174,7.959,1.554,9.149-3.883l-9.635,2.262m22.712.7-.716-1.893H1276.1c-.172.5-.348,1-.524,1.5,1.366.75,2.719,2.065,4.1,2.094a13.76,13.76,0,0,0,4.7-1.676m-178.063-3.41-4.21,3.1c1.135.808,2.338,2.35,3.385,2.249a12.969,12.969,0,0,0,4.382-2.3l-3.556-3.045m-36.888,2.681c-1.7-1.211-2.823-2.513-3.351-2.287a16.578,16.578,0,0,0-3.6,2.7c.67.838,1.588,2.471,1.965,2.354a27.532,27.532,0,0,0,4.977-2.769" transform="translate(33.033 209.363)" fill="#373030"/>
      <path id="Path_68" data-name="Path 68" d="M371.551,114.513c0,13.141.071,25.649-.142,38.157,0,.968-2.04,2.706-3.154,2.727-11.5.2-23.01.067-34.513.138-3.087,0-4.3-1.051-4.243-4.3.172-10.8-.042-21.615.209-32.418.033-1.454,1.835-4.093,2.861-4.118,12.693-.285,25.389-.184,38.982-.184" transform="translate(1050.7 365.71)" fill="#fff"/>
      <path id="Path_69" data-name="Path 69" d="M135.188,92.858c0,12.906.117,24.518-.176,36.121-.029,1.181-2.459,3.209-3.858,3.288-6.757.377-13.547.168-20.325.272-3.527.054-4.39-1.831-4.348-4.964.13-10.255.226-20.526.08-30.764-.046-3.175,1.491-3.942,4.076-3.946,7.8-.021,15.6,0,24.551,0" transform="translate(339.511 296.704)" fill="#fff"/>
      <path id="Path_70" data-name="Path 70" d="M127.242,112.489c0,5.056-.151,10.12.059,15.164.121,3.041-.733,4.65-4,4.608q-10.2-.138-20.4-.109c-3.217,0-4.16-1.613-4.13-4.608.1-9.936.155-19.881,0-29.817-.059-3.448,1.156-4.553,4.558-4.486,6.283.121,12.567-.092,18.825-.331,3.59-.134,5.446.674,5.056,4.943-.461,4.838-.1,9.756-.1,14.636h.142" transform="translate(314.931 296.832)" fill="#fff"/>
      <path id="Path_71" data-name="Path 71" d="M216.3,131.347c-4.009,0-8.022-.122-12.022.042-3.313.134-4.733-1.047-4.608-4.524.243-7.662.293-15.332.247-23,0-2.74.595-4.218,3.741-4.164,8.537.151,17.078.134,25.62.071,3.146-.021,4.239,1.2,4.105,4.419-.3,7.3-.532,14.636-.2,21.929.2,4.365-1.382,5.513-5.374,5.245-3.816-.26-7.666-.054-11.5-.054Z" transform="translate(636.659 318.535)" fill="#fff"/>
      <path id="Path_72" data-name="Path 72" d="M190.74,99.784h33.093c0,9.588.1,19.072-.155,28.552-.025.959-2.2,2.635-3.4,2.668q-13.038.333-26.093-.025c-1.173-.034-3.276-1.759-3.3-2.748-.256-9.341-.151-18.7-.151-28.447" transform="translate(608.117 318.795)" fill="#fff"/>
      <path id="Path_73" data-name="Path 73" d="M182.607,100.045v28.3h-27.6c0-8.918-.071-17.367.113-25.812a3.5,3.5,0,0,1,2.467-2.379c8.143-.184,16.287-.109,25-.109" transform="translate(494.23 319.577)" fill="#fff"/>
      <path id="Path_74" data-name="Path 74" d="M173.083,128.16V100.094c8.487,0,16.626-.147,24.752.18,1.077.042,2.882,2.451,2.953,3.829.335,6.958.343,13.941.109,20.907a4.3,4.3,0,0,1-2.932,3c-8.156.251-16.337.138-24.882.138" transform="translate(551.906 319.678)" fill="#fff"/>
      <path id="Path_75" data-name="Path 75" d="M173.072,119.031c8.353,0,16.5-.138,24.623.159a4.814,4.814,0,0,1,3.138,3.468c.339,6.949.348,13.928.121,20.886-.038,1.223-1.675,3.4-2.652,3.427-8.3.276-16.613.159-25.23.159Z" transform="translate(551.871 380.071)" fill="#fff"/>
      <path id="Path_76" data-name="Path 76" d="M155.07,119.025c8.353,0,16.475-.142,24.581.168,1.1.042,2.97,2.329,3.029,3.64.3,6.933.306,13.895,0,20.827a4.84,4.84,0,0,1-3.422,3.234c-7.959.293-15.918.151-24.166.151Z" transform="translate(494.463 380.048)" fill="#fff"/>
      <path id="Path_77" data-name="Path 77" d="M267.738,115.266c0-3.485.176-6.987-.055-10.472-.193-2.932.909-4.189,3.8-4.143,5.4.08,10.812.147,16.211.071,2.605-.034,3.837.8,3.77,3.615-.18,7.314-.293,14.632-.189,21.95.05,3.393-1.558,4.122-4.512,4.047-5.228-.134-10.472-.142-15.692.025-2.723.088-3.77-.838-3.64-3.6.176-3.829.042-7.67.042-11.507Z" transform="translate(852.758 321.555)" fill="#fff"/>
      <path id="Path_78" data-name="Path 78" d="M308.988,100.722h23.249c0,8.935.163,17.422-.184,25.892-.05,1.2-2.513,3.188-3.98,3.284a114.218,114.218,0,0,1-15.612-.138c-1.215-.084-3.288-1.78-3.322-2.786-.264-8.642-.151-17.3-.151-26.252" transform="translate(985.223 321.786)" fill="#fff"/>
      <rect id="Rectangle_163" data-name="Rectangle 163" width="21.95" height="29.084" transform="translate(1148.101 422.625)" fill="#fff"/>
      <path id="Path_79" data-name="Path 79" d="M338.5,130.1c-6.962,0-13.2.18-19.407-.151a4.831,4.831,0,0,1-3.443-3.171c-.243-7.808-.155-15.633.193-23.458.042-.934,2.258-2.472,3.523-2.513a126.06,126.06,0,0,1,15.612.138c1.257.092,3.351,1.969,3.351,3.079.285,8.478.155,16.974.155,26.072" transform="translate(1006.104 321.494)" fill="#fff"/>
      <path id="Path_80" data-name="Path 80" d="M303.014,100.711c6.464,0,12.035.092,17.593-.038,3.092-.071,4.491,1.11,4.419,4.269-.151,6.794-.276,13.593-.193,20.388.042,3.318-1.29,4.859-4.57,4.859-4.708,0-9.429.251-14.117-.063a4.348,4.348,0,0,1-3-3.02c-.247-8.675-.138-17.355-.138-26.39" transform="translate(966.16 321.621)" fill="#fff"/>
      <path id="Path_81" data-name="Path 81" d="M261.55,114.733c0-3.485.13-6.975-.042-10.472-.138-2.777,1.064-3.77,3.682-3.657,4.524.168,9.052.3,13.581.306,2.777,0,4.109.98,4.067,3.975-.1,7.318-.034,14.636.071,21.954.038,2.668-.934,3.724-3.716,3.6-4.687-.2-9.4-.226-14.092,0-2.886.134-3.7-1.219-3.695-3.695V114.724h.142" transform="translate(833.569 321.381)" fill="#fff"/>
      <path id="Path_82" data-name="Path 82" d="M453.766,119.934v21.317c-8.709,0-17.175.092-25.615-.134-.9-.025-2.467-1.877-2.513-2.932a127.4,127.4,0,0,1,.1-15.122,4.356,4.356,0,0,1,3.008-3c8.147-.251,16.308-.138,25.029-.138" transform="translate(1356.716 382.956)" fill="#fff"/>
      <path id="Path_83" data-name="Path 83" d="M52.946,134.144c0-4.972-.239-9.655.172-14.28a4.849,4.849,0,0,1,3.632-2.932c9.852-.243,19.713-.134,29.867-.134V134.14Z" transform="translate(168.574 372.972)" fill="#fff"/>
      <rect id="Rectangle_164" data-name="Rectangle 164" width="27.132" height="20.651" transform="translate(1751.083 503.233)" fill="#fff"/>
      <path id="Path_84" data-name="Path 84" d="M439.515,134.255c-13.895.113-13.639.1-14.033-13.79-.147-5.169,1.357-6.623,6.38-6.17a119.03,119.03,0,0,0,16.714.117c4.465-.23,5.99,1.617,5.542,5.8-.151,1.378.067,2.79,0,4.189-.591,10.225,2.162,9.844-10.409,9.865h-4.189" transform="translate(1356.762 364.819)" fill="#fff"/>
      <rect id="Rectangle_165" data-name="Rectangle 165" width="27.421" height="19.684" transform="translate(1750.869 479.457)" fill="#fff"/>
      <path id="Path_85" data-name="Path 85" d="M363.505,134.873c0-5.215.138-10.435-.05-15.642-.117-3.225,1.223-4.432,4.289-4.281a27.659,27.659,0,0,0,4.164-.176c4.055-.419,5.563,1.324,5.487,5.4-.18,9.907-.18,19.826.059,29.742.088,3.64-1.093,5.157-4.7,4.914a26.106,26.106,0,0,0-4.164.235c-3.732.348-5.383-1.064-5.144-5.06.293-5.027.071-10.079.063-15.122" transform="translate(1158.878 366.404)" fill="#fff"/>
      <path id="Path_86" data-name="Path 86" d="M97.14,104.429c0,9.036.163,17.175-.163,25.335-.054,1.336-2.249,2.593-3.473,3.871-.084.084-.339,0-.511,0-14.439.746-14.431.746-14.36-13.648a96.945,96.945,0,0,1,.1-11.465,5.465,5.465,0,0,1,3.351-3.912c4.784-.469,9.635-.188,15.051-.188" transform="translate(250.32 333.314)" fill="#fff"/>
      <path id="Path_87" data-name="Path 87" d="M368.051,135.589c0,5.027-.147,10.087.054,15.122.117,2.932-.926,4.235-3.845,4a3.593,3.593,0,0,0-.519,0c-9.258.561-9.253.561-9.216-8.684.055-8.688.184-17.376.117-26.059-.054-7.4,5.8-4.109,9.119-4.989,3.925-1.035,4.537,1.738,4.465,4.956-.117,5.215-.034,10.43-.034,15.646h-.163" transform="translate(1130.498 366.55)" fill="#fff"/>
      <path id="Path_88" data-name="Path 88" d="M350.323,154.1V115.05a82.832,82.832,0,0,1,10.5.163c1.014.134,2.513,2.245,2.513,3.477.251,10.284.1,20.576.331,30.86.075,3.456-1.206,4.738-4.537,4.579-2.882-.138-5.772-.029-8.818-.029" transform="translate(1117.073 367.175)" fill="#fff"/>
      <path id="Path_89" data-name="Path 89" d="M91.806,104.457V133.3c-5.408,0-10.426.184-15.407-.159-.993-.067-2.593-2.128-2.639-3.318-.264-7.121-.067-14.242-.218-21.364-.063-2.907.968-4.109,3.917-4.03,4.8.134,9.6.038,14.347.038" transform="translate(234.467 333.604)" fill="#fff"/>
      <path id="Path_90" data-name="Path 90" d="M129.191,104.469c5.379,0,10.372-.151,15.344.126a3.943,3.943,0,0,1,2.765,2.664q.3,11.442-.071,22.9a4.05,4.05,0,0,1-2.61,2.932c-4.968.3-9.97.138-15.428.138Z" transform="translate(411.937 333.605)" fill="#fff"/>
      <path id="Path_91" data-name="Path 91" d="M368.17,114.955h13.157v11.616c-.021,6.61-.088,13.216-.063,19.822.025,7.444.063,7.456-7.611,7.8-1.676.075-3.4,0-5.483,0Z" transform="translate(1174.027 367.174)" fill="#fff"/>
      <path id="Path_92" data-name="Path 92" d="M75.206,93.332c7.716,0,15.474-.18,23.2.2,1.123.054,2.836,2.731,3.012,4.331a100.586,100.586,0,0,1-.163,10.422c0,3.59-1.378,4.826-5.127,4.532a143.966,143.966,0,0,0-16.023-.054c-3.4.117-5.261-.595-4.976-4.608.331-4.646.075-9.337.075-14.829" transform="translate(239.451 298.085)" fill="#fff"/>
      <path id="Path_93" data-name="Path 93" d="M372.411,154.5c0-12.613-.084-24.6.147-36.582.021-1.051,2-2.756,3.255-2.932a67.7,67.7,0,0,1,9.668-.138v15.449c0,6.283-.331,12.567.067,18.813.306,4.809-1.646,6.283-6.02,5.793-2.052-.218-4.126-.23-7.121-.381" transform="translate(1187.505 366.465)" fill="#fff"/>
      <path id="Path_94" data-name="Path 94" d="M134.176,133.68c0-9.333-.088-17.682.121-26.022.025-.98,1.676-1.923,2.622-2.865.088-.084.339,0,.511,0,14.787-1.177,14.783-1.177,14.762,13.426,0,3.665,0,7.331.08,10.992.071,2.953-.984,4.608-4.231,4.516-4.331-.117-8.667-.029-13.865-.029" transform="translate(427.775 333.293)" fill="#fff"/>
      <path id="Path_95" data-name="Path 95" d="M359.25,116.181c.2-.134.327-.289.477-.314,12.726-2.2,12.73-2.2,12.81,10.451.05,7.846-.08,15.7.2,23.534.134,3.724-1.257,5.119-4.822,4.8a27.433,27.433,0,0,0-4.189.054c-3.473.23-4.759-.838-4.608-4.788.394-11.126.138-22.273.138-33.738" transform="translate(1145.117 366.555)" fill="#fff"/>
      <path id="Path_96" data-name="Path 96" d="M53.028,126.361V112.45c10.69,0,21.058-.092,31.417.159.93.021,2.513,2.254,2.572,3.519a85.268,85.268,0,0,1-.62,10.234Z" transform="translate(169.057 359.132)" fill="#fff"/>
      <path id="Path_97" data-name="Path 97" d="M157.09,103.351c-.1,10.745-.616,11.034-11.31,9.467a43.521,43.521,0,0,0-10.255.268c-3.4.323-4.88-.963-4.771-4.352.075-2.438-.05-4.88-.054-7.322,0-8.457,0-8.378,8.328-7.959a81.953,81.953,0,0,0,11.783-.172c5-.469,7.121,1.366,6.329,6.422a25.444,25.444,0,0,0-.042,3.661m-14.008,5.508.838-.054V98.111l-.838.034Z" transform="translate(416.749 297.831)" fill="#fff"/>
      <path id="Path_98" data-name="Path 98" d="M47.868,116.027V133.75c-6.133,0-12.374,1.307-17.719-.327-6.841-2.094-1.395-8.948-2.89-13.459-.712-2.153.151-4.038,3.171-3.971,5.693.122,11.39.034,17.439.034" transform="translate(84.796 370.48)" fill="#fff"/>
      <path id="Path_99" data-name="Path 99" d="M402.044,137.7c-5.324,0-9.8.205-14.242-.142a4.316,4.316,0,0,1-2.974-2.983c-.05-5.328.419-10.657.691-16.4a98.778,98.778,0,0,1,12.793.193,5.62,5.62,0,0,1,3.556,4.009c.452,4.926.172,9.919.172,15.319" transform="translate(1227.136 377.062)" fill="#fff"/>
      <path id="Path_100" data-name="Path 100" d="M406.875,118.153v19.4c-4.909,0-9.551.126-14.18-.1-.993-.05-2.727-1.324-2.756-2.095-.176-4.491.1-8.994.122-13.5,0-2.932,1.407-3.9,4.252-3.77,3.971.184,7.959.046,12.567.046" transform="translate(1243.259 377.15)" fill="#fff"/>
      <path id="Path_101" data-name="Path 101" d="M401.778,112.73v13.681a7.362,7.362,0,0,1-.046,1.487,116.674,116.674,0,0,1-13.92,1.466c-.972,0-2.769-2.76-2.84-4.31-.566-12.374-.465-12.378,12.064-12.324Z" transform="translate(1227.055 360.058)" fill="#fff"/>
      <path id="Path_102" data-name="Path 102" d="M48.055,134.64V117.885l15.44-1.257c.444,6.212.838,11.821,1.29,18.012Z" transform="translate(153.199 372.509)" fill="#fff"/>
      <path id="Path_103" data-name="Path 103" d="M389.92,113.951c1.152-.838,1.29-1.01,1.424-1.01,19.328,0,15.7-3.552,15.541,16.7-4.767,0-9.563.134-14.343-.113a3.583,3.583,0,0,1-2.513-2.425c-.251-4.608-.117-9.262-.117-13.149" transform="translate(1243.245 359.989)" fill="#fff"/>
      <path id="Path_104" data-name="Path 104" d="M442.419,121.862c.838-2.585-2.706-7.7,4.461-7.628,11.972.13,12.533,0,11.93,5.73-.419,3.841,4.335,10.933-4.629,10.912-13.677-.029-11.427,1.676-11.763-9.015" transform="translate(1410.305 364.871)" fill="#fff"/>
      <path id="Path_105" data-name="Path 105" d="M451.253,130.987c-.1-1.676-.23-3.058-.243-4.419-.147-12.81.792-13.6,13.794-11.729.511.075,1.454.113,1.47.255a120.962,120.962,0,0,1,1.227,12.952c0,.972-2.048,2.714-3.267,2.823-4.105.356-8.261.134-12.986.134" transform="translate(1438.158 364.388)" fill="#fff"/>
      <path id="Path_106" data-name="Path 106" d="M233.23,95.689c.419-2.677.293-7.389,1.34-7.662a17.977,17.977,0,0,1,11.645-.184c5.588,2.895,1.479,8.935,2.2,13.543.482,3.087-1.676,3.77-4.306,3.569-.691-.054-1.387-.059-2.094-.075-8.8-.2-8.8-.2-8.8-9.191" transform="translate(743.67 277.913)" fill="#fff"/>
      <path id="Path_107" data-name="Path 107" d="M253.094,87.1c0,4.943.222,9.6-.155,14.213-.092,1.16-2.044,2.224-3.247,3.209-.314.26-1.022.1-1.537.05-3.351-.364-9.3-.084-9.605-1.257a53.383,53.383,0,0,1-.515-14.452c0-.612,1.42-1.655,2.22-1.676,3.954-.176,7.921-.08,12.839-.08" transform="translate(758.179 278.278)" fill="#fff"/>
      <path id="Path_108" data-name="Path 108" d="M260.911,121.3a92.188,92.188,0,0,1-11.18-.155,4.875,4.875,0,0,1-3.293-3.276,120.992,120.992,0,0,1-.159-12.265c.469-.373.708-.721.993-.762,16.68-2.618,14.506-1.793,13.639,16.458" transform="translate(785.048 331.421)" fill="#fff"/>
      <path id="Path_109" data-name="Path 109" d="M241.739,105.187a5.608,5.608,0,0,1,1.223-.767c11.679-2.631,16.362,2.145,13.4,13.823-.256,1.01-1.709,1.73-2.626,2.564-.1.092-.339,0-.511.046-11.08,1.676-11.235,1.579-11.486-9.216-.055-2.224,0-4.444,0-6.451" transform="translate(770.783 331.337)" fill="#fff"/>
      <path id="Path_110" data-name="Path 110" d="M246.187,137.77v-13.71a6.325,6.325,0,0,1,.059-1.462,87.49,87.49,0,0,1,11.817-1.32c1.085,0,2.182,2.245,3.255,3.481.084.1,0,.335,0,.507,0,16.157,1.676,13.338-15.143,12.5" transform="translate(784.972 387.338)" fill="#fff"/>
      <path id="Path_111" data-name="Path 111" d="M243.682,103.832c0,4.784.2,9.262-.142,13.7a4.379,4.379,0,0,1-3.024,2.932c-3.691.339-10.3.993-10.661-.13a44.166,44.166,0,0,1-.913-14.192c0-.783,1.772-2.115,2.8-2.2,3.611-.272,7.251-.1,11.939-.1" transform="translate(729.364 331.569)" fill="#fff"/>
      <path id="Path_112" data-name="Path 112" d="M236.057,121.26c8.185,0,8.185,0,8.2,9.743,0,7.226,0,7.561-6.43,7.075-3.489-.264-9.379,3.037-9.182-5,.293-11.821.113-11.825,7.414-11.817" transform="translate(729.067 387.28)" fill="#fff"/>
      <path id="Path_113" data-name="Path 113" d="M239.207,129.724a29.738,29.738,0,0,0,0,3.117c.419,4.122-.984,5.911-5.5,5.638-10.2-.616-9.605,1.789-9.371-9.446.05-2.513.226-7.029.968-7.163a28.715,28.715,0,0,1,12.24,0c1.328.36,1.5,5.027,2.195,7.7l-.545.138" transform="translate(715.03 387.119)" fill="#fff"/>
      <path id="Path_114" data-name="Path 114" d="M241.752,121.286h12.416c.172,0,.482.033.49.092a98.378,98.378,0,0,1,1.852,12.2,5.521,5.521,0,0,1-2.9,4.377c-9.723,2.4-11.859.62-11.859-9.174v-7.5" transform="translate(770.887 387.351)" fill="#fff"/>
      <path id="Path_115" data-name="Path 115" d="M48.055,126.867V112.382H64.124c0,4.327.159,8.252-.126,12.148-.063.838-1.676,2.178-2.668,2.237-4.294.243-8.608.1-13.275.1" transform="translate(153.199 358.969)" fill="#fff"/>
      <path id="Path_116" data-name="Path 116" d="M224.27,113.1c-.042-8.256,3.686-11.042,11.846-8.742.9.256,2.316,1.068,2.342,1.676.2,4.658.163,9.329,0,13.987,0,.419-1.3,1.043-2.061,1.177a24.458,24.458,0,0,1-3.632.1c-9.7.214-8.378.545-8.512-8.2" transform="translate(715.084 330.912)" fill="#fff"/>
      <path id="Path_117" data-name="Path 117" d="M252.192,82.288c.272,1.374.545,2.354.658,3.351,1.42,12.7,1.747,11.218-11.834,11.951a4.412,4.412,0,0,1-3.171-2.932,51.351,51.351,0,0,1,.3-10.334,3.315,3.315,0,0,1,2.471-1.948c3.77-.218,7.586-.092,11.574-.092" transform="translate(758.009 262.871)" fill="#fff"/>
      <path id="Path_118" data-name="Path 118" d="M44.277,102.475c5.2,0,10.053-.188,14.833.134a4.829,4.829,0,0,1,3.142,2.895,23.166,23.166,0,0,1,.188,5.165c.335,3.351-.9,4.813-4.394,4.608-3.64-.2-7.322.222-10.937-.134-1.227-.121-3.192-1.722-3.276-2.769a71.213,71.213,0,0,1,.444-9.911" transform="translate(139.664 327.2)" fill="#fff"/>
      <path id="Path_119" data-name="Path 119" d="M92.859,139.481H87.04c-8.562,0-8.684,0-8.378-8.747.088-2.434.7-6.669,1.772-6.908a40.579,40.579,0,0,1,11.264.042c.419.029,1.077,1.336,1.093,2.065.1,4.3.05,8.6.05,13.547" transform="translate(250.543 394.281)" fill="#fff"/>
      <path id="Path_120" data-name="Path 120" d="M241.788,82.433c1.914,1.726,6.849-3.054,6.778,3.024-.147,11.972-.989,13.124-10.439,12.617-7.49-.419-3.954-6.815-4.579-10.552-1.232-7.343,4.842-4.034,8.24-5.09" transform="translate(743.766 262.906)" fill="#fff"/>
      <path id="Path_121" data-name="Path 121" d="M55.673,102.456c0,3.552.025,7.121-.029,10.7,0,.457-.419,1.3-.649,1.307a66.667,66.667,0,0,1-15.235-.256c-1.068-.226-1.014-6.5-1.077-9.991,0-.565,2.044-1.63,3.179-1.676,4.465-.2,8.943-.08,13.824-.08" transform="translate(123.312 327.219)" fill="#fff"/>
      <path id="Path_122" data-name="Path 122" d="M130.008,131.623c.122-9.019-1.324-7.687,8.688-8.139,3.912-.18,5.8,1.014,5.739,5.232-.151,10.548-.31,10.925-7.678,10.891-6.761-.034-6.761-.034-6.748-7.984" transform="translate(414.508 394.318)" fill="#fff"/>
      <path id="Path_123" data-name="Path 123" d="M261.294,130.988h-15.08c0-2.631.054-4.855,0-7.075-.222-7.435-.239-7.4,6.887-7.444,9.383-.063,8.667-.05,8.206,8.487-.1,1.877,0,3.77,0,6.032" transform="translate(784.916 371.973)" fill="#fff"/>
      <path id="Path_124" data-name="Path 124" d="M261.02,99.1v4.549c.126,10.162.13,10.1-10.208,10.02-3.033-.021-4.562-1.2-4.562-4.252V99.1Z" transform="translate(785.231 316.613)" fill="#fff"/>
      <path id="Path_125" data-name="Path 125" d="M229.342,99h5.1c9.459-.05,11.52,2.513,9.408,11.985A3.854,3.854,0,0,1,241.4,113.5a43.957,43.957,0,0,1-9.844.159,4.412,4.412,0,0,1-2.9-3.133A106.994,106.994,0,0,1,229.342,99" transform="translate(729.122 316.294)" fill="#fff"/>
      <path id="Path_126" data-name="Path 126" d="M134.272,139.272a112.882,112.882,0,0,1,.163-12.257,4.8,4.8,0,0,1,3.372-3.209c11.863-.054,10.25-3.083,10.472,9.3.029,1.9,0,3.8,0,6.162Z" transform="translate(427.838 394.238)" fill="#fff"/>
      <path id="Path_127" data-name="Path 127" d="M228.745,123.561c.339-3.23-1.676-7.507,4.909-7.088,10.313.658,10.334.289,10.317,9.366,0,5.446-.306,5.6-10.569,5.475-4.759-.063-4.759-.063-4.658-7.754" transform="translate(729.283 371.926)" fill="#fff"/>
      <path id="Path_128" data-name="Path 128" d="M239.489,116.523c0,4.361.205,8.135-.138,11.859-.1,1.035-1.738,2.032-2.836,2.819-.457.331-1.345.071-2.04.084-9.794.168-11.922-2.488-9.509-12.232a3.86,3.86,0,0,1,2.618-2.417c3.908-.272,7.846-.113,11.9-.113" transform="translate(714.455 372.028)" fill="#fff"/>
      <path id="Path_129" data-name="Path 129" d="M238.9,99c0,2.027.025,3.221,0,4.411-.256,10.2-.264,10.108-10.472,10.64-2.89.151-4.273-.545-4.189-3.6.109-3.611.025-7.222.025-11.113,1.621-.13,2.957-.306,4.294-.327,3.263-.042,6.526,0,10.359,0" transform="translate(715.03 316.29)" fill="#fff"/>
      <path id="Path_130" data-name="Path 130" d="M241.918,122.849c-.75-3.745-.281-6.761,5.814-6.413,9.191.524,9.216.176,9.191,6.66-.029,8.5-.029,8.575-7.41,8.474-8.948-.121-7.649.607-7.595-8.721" transform="translate(770.554 371.809)" fill="#fff"/>
      <path id="Path_131" data-name="Path 131" d="M88.151,139.719c-4,0-7.616.142-11.2-.1A3.255,3.255,0,0,1,74.7,137.4a65.219,65.219,0,0,1-.067-10.929c.092-.959,1.914-2.358,3.083-2.513,10.535-1.47,11.155-.838,10.707,9.8-.071,1.726-.159,3.448-.276,5.965" transform="translate(237.339 394.022)" fill="#fff"/>
      <path id="Path_132" data-name="Path 132" d="M241.734,99.057a59.879,59.879,0,0,1,6.937.054c2.551.331,6.9.524,7.226,1.676a34.321,34.321,0,0,1,.281,11.222c-.042.624-1.772,1.479-2.815,1.638-10.393,1.629-11.394.783-11.624-9.5-.034-1.525,0-3.045,0-5.1" transform="translate(770.796 316.237)" fill="#fff"/>
      <path id="Path_133" data-name="Path 133" d="M92.931,119.413v13.053a94.33,94.33,0,0,1-10.82.586c-1.215-.063-2.367-1.826-3.489-2.878-.18-.168-.088-.666-.067-1.01.633-11.193-2.631-10.636,14.376-9.752" transform="translate(250.324 380.041)" fill="#fff"/>
      <path id="Path_134" data-name="Path 134" d="M134.355,119.047h5.609c8.964-.151,7.779-.662,8.6,7.959.419,4.5-.49,6.665-5.354,6.12a19.051,19.051,0,0,0-4.135.39c-3.351.381-5.333-.385-4.8-4.478a81.883,81.883,0,0,0,.08-9.986" transform="translate(427.872 380.026)" fill="#fff"/>
      <path id="Path_135" data-name="Path 135" d="M44.024,109.867V98.7c5.261,0,10.213-.126,15.147.121a3.677,3.677,0,0,1,2.4,2.564,71.712,71.712,0,0,1,.113,8.487Z" transform="translate(140.344 315.221)" fill="#fff"/>
      <path id="Path_136" data-name="Path 136" d="M55.839,98.708c1.215,10.958,1.215,10.958-8.441,11.168a10.306,10.306,0,0,0-2.094.113c-5.617,1.278-6.7,1.37-6.753-6.585,0-3.167,1.01-4.884,4.524-4.738,4.273.176,8.562.042,12.747.042" transform="translate(122.891 315.204)" fill="#fff"/>
      <path id="Path_137" data-name="Path 137" d="M74.552,119.071h13.4v13.886a84.826,84.826,0,0,1-10.112-.138,4.477,4.477,0,0,1-3.138-2.84,93.527,93.527,0,0,1-.151-10.891" transform="translate(237.415 380.3)" fill="#fff"/>
      <path id="Path_138" data-name="Path 138" d="M130.07,119.11a71.826,71.826,0,0,0,8.114-.054c4.373-.524,5.768,1.211,5.7,5.525-.155,10.02-.972,10.585-13.824,7.578Z" transform="translate(414.714 379.963)" fill="#fff"/>
      <path id="Path_139" data-name="Path 139" d="M291.613,131.609c.507-3.28-2.015-8.437,4.264-7.121,3.322.683,9.584-3.552,9.509,4.545-.088,9.249-.075,9.182-9.836,9.262-5.864.05-3.351-4.264-3.937-6.665" transform="translate(929.607 395.949)" fill="#fff"/>
      <path id="Path_140" data-name="Path 140" d="M312.555,137.92a51.619,51.619,0,0,0-.055-7.151c-.838-5.4,1.6-7.347,6.66-6.648,2.094.289,5.705.44,5.915,1.307a45.836,45.836,0,0,1,.775,11.2c0,.44-1.96,1.181-3.041,1.236-3.251.163-6.518.059-10.254.059" transform="translate(995.983 395.968)" fill="#fff"/>
      <path id="Path_141" data-name="Path 141" d="M284.212,137.648c-2.229,0-3.77.067-5.337,0-2.467-.126-6.732.281-7.058-.649a28.781,28.781,0,0,1-.892-10.2c.025-.838,1.676-2.044,2.79-2.337a42.006,42.006,0,0,1,5.182-.306c4.017-.532,5.864.838,5.37,5.14a76.536,76.536,0,0,0-.054,8.378" transform="translate(863.533 396.165)" fill="#fff"/>
      <path id="Path_142" data-name="Path 142" d="M301.194,131.6c0,5.978-.624,6.154-7.62,6.505-6.124.31-6.149-3.326-6.086-7.616.054-3.51-.021-6.593,5.027-6.476,8.441.193,8.675.2,8.667,7.586" transform="translate(916.703 396.054)" fill="#fff"/>
      <path id="Path_143" data-name="Path 143" d="M315.307,124.214c6.9.243,6.9.528,6.824,8.7-.067,7.494-5.533,4.457-9.01,4.792-6.66.637-4.44-4.729-4.779-8.005-.6-5.739,3.2-6.066,6.966-5.492" transform="translate(982.931 396.06)" fill="#fff"/>
      <path id="Path_144" data-name="Path 144" d="M298.3,120.272c7.75.092,7.812.092,7.657,7.54-.168,8.06-6.669,4.407-10.137,4.717-6.9.62-3.406-5.286-3.862-8.328-.913-6.116,4.231-3.016,6.342-3.938" transform="translate(929.436 384.104)" fill="#fff"/>
      <path id="Path_145" data-name="Path 145" d="M273.364,137.748c-6.7-.121-6.7-.121-6.606-6.97.046-3.494-.595-7.121,5.073-6.7,8.038.591,8.378,1.064,8.684,8.667.247,6.133-3.653,4.96-7.151,5" transform="translate(850.567 396.152)" fill="#fff"/>
      <path id="Path_146" data-name="Path 146" d="M358.932,110.79a49.983,49.983,0,0,1,14.02,2.823c1.257.662.934,8.575-.553,9.3a12.9,12.9,0,0,1-11.159.168c-2.153-1.583-1.483-7-2.308-12.29" transform="translate(1144.568 353.892)" fill="#fff"/>
      <path id="Path_147" data-name="Path 147" d="M370.3,110.98c3.6.356,7.754-1.353,7.485,4.692-.331,7.435-.519,7.754-9.76,7.959-6.933.142-3.992-5.446-4.449-8.378-.955-6.107,4.331-3.46,6.7-4.264" transform="translate(1158.617 354.498)" fill="#fff"/>
      <path id="Path_148" data-name="Path 148" d="M288.114,133.156c-.209-1.387-.478-2.543-.549-3.716-.54-8.462,2.882-11.1,11.138-8.319,4.39,1.479,1.713,5.4,2.12,8.152a4.684,4.684,0,0,1-2.765,3.7,62.078,62.078,0,0,1-9.945.18" transform="translate(916.807 383.452)" fill="#fff"/>
      <path id="Path_149" data-name="Path 149" d="M276.641,132.588c-5.617,1.713-5.4-2.291-5.865-6.744-.578-5.806,2.769-5.6,6.648-5.584,7.222.025,7.3.033,7.368,7.088.05,5.094,0,5.144-8.168,5.24" transform="translate(863.237 384.079)" fill="#fff"/>
      <path id="Path_150" data-name="Path 150" d="M368.426,111.043c3.234,0,6,.209,8.73-.05,3.561-.339,5.349.959,4.993,4.608-.3,3.075,1.83,7.54-3.959,7.787-9.383.419-10.418-.419-10.158-7.863.042-1.19.205-2.375.394-4.465" transform="translate(1173.478 354.372)" fill="#fff"/>
      <path id="Path_151" data-name="Path 151" d="M314.126,132.4c-6.036,1.642-5.961-2.639-5.865-6.878.13-4.951,1.135-5.24,9.35-5.332,6.1-.067,4.088,4.189,4.386,7.2.616,6.208-3.628,5.412-7.888,5.006" transform="translate(982.909 383.874)" fill="#fff"/>
      <path id="Path_152" data-name="Path 152" d="M120.223,112.468c-3.468,0-6.954.2-10.393-.109-1.139-.1-2.166-1.508-3.242-2.321,1-1.1,1.986-3.133,3.012-3.163,7.444-.155,14.9,0,22.344.323.871.034,2.513,1.868,2.337,2.442-.335,1.131-1.617,2.706-2.618,2.8-3.77.327-7.624.13-11.44.13v-.1" transform="translate(339.857 341.218)" fill="#fff"/>
      <path id="Path_153" data-name="Path 153" d="M319.312,132.3c-6.6.138-6.309.117-6.9-7.733-.373-4.943,2.61-4.256,5.542-4.306,7.54-.13,7.934.327,8.4,6.246.494,6.246-3.435,6.091-7.042,5.793" transform="translate(996.121 384.04)" fill="#fff"/>
      <path id="Path_154" data-name="Path 154" d="M361.221,123.161c-6.627-.2-6.7-.473-6.7-7.234.029-7.682,5.638-4.109,9.09-4.608,2.572-.36,5.282-.524,4.926,3.8-.662,8.051-.624,8.231-7.326,8.026" transform="translate(1130.495 354.289)" fill="#fff"/>
      <path id="Path_155" data-name="Path 155" d="M372.19,111.473c2.572-.147,4.453-.239,6.325-.364,7.632-.515,7.921-.172,7.779,7.435-.05,2.823-.616,5.2-3.979,4.369-3.159-.783-8.558,3.632-9.153-3.661-.193-2.4-.591-4.775-.972-7.779" transform="translate(1186.847 354.407)" fill="#fff"/>
      <path id="Path_156" data-name="Path 156" d="M267.369,132.472a13.942,13.942,0,0,1-.566-2.095c-.6-9.568,1.935-11.729,11.285-9.4a3.67,3.67,0,0,1,2.333,2.174c1.537,6.631-.917,9.526-7.649,9.341-1.722-.05-3.439,0-5.4,0" transform="translate(850.509 383.634)" fill="#fff"/>
      <path id="Path_157" data-name="Path 157" d="M357,122.91c-6.761-.1-6.552-.2-6.786-7.063-.218-6.338,4.314-4.474,7.506-4.863,4.734-.574,6.443,1.63,6.057,6.38-.452,5.513-.323,5.643-6.778,5.546" transform="translate(1116.757 354.226)" fill="#fff"/>
      <path id="Path_158" data-name="Path 158" d="M113.5,110.005c-3.82,0-7.662.193-11.457-.121-1.1-.092-2.094-1.646-3.121-2.513,1.1-.754,2.17-2.12,3.3-2.166,6.761-.3,13.547-.478,20.308-.23,1.374.05,2.677,2.094,4.013,3.23a13.94,13.94,0,0,1-4.189,2.094,79.762,79.762,0,0,1-8.839.1Z" transform="translate(315.404 334.976)" fill="#fff"/>
      <path id="Path_159" data-name="Path 159" d="M99.4,106.974c8.231,0,16.031-.1,23.823.121,1,.025,1.952,1.676,2.932,2.606-1.148.884-2.291,2.513-3.447,2.513-6.774.075-13.551-.36-20.329-.352-3.912,0-3.695-2.094-2.97-4.905" transform="translate(315.622 341.656)" fill="#fff"/>
      <path id="Path_160" data-name="Path 160" d="M135.414,107.25c-1.257,1.01-2.513,2.844-3.824,2.895-7.28.264-14.582.188-21.866-.034-1.093-.034-2.145-1.458-3.213-2.241,1.01-.976,1.91-2.593,3.054-2.79a36.783,36.783,0,0,1,7.771-.134c5.705.256,11.4.624,17.1.947l.976,1.357" transform="translate(339.608 334.795)" fill="#fff"/>
      <path id="Path_161" data-name="Path 161" d="M120.983,113.444c-3.992,0-7.988.117-11.972-.088-.9-.046-2.384-1.139-2.451-1.864-.084-.838,1.089-2.606,1.717-2.6,8.307.021,16.622.243,24.924.586.507.021,1.42,1.571,1.294,2.254a2.746,2.746,0,0,1-2.061,1.634c-3.812.168-7.632.075-11.453.08" transform="translate(339.755 347.836)" fill="#fff"/>
      <path id="Path_162" data-name="Path 162" d="M128.611,113.524c-10.317,0-18.963.059-27.605-.1a3.074,3.074,0,0,1-2.094-2.174c.1-.892,1.349-2.375,2.094-2.371,7.988,0,15.977.18,23.952.6.913.046,1.734,1.864,3.628,4.046" transform="translate(315.371 347.795)" fill="#fff"/>
      <path id="Path_163" data-name="Path 163" d="M134.788,102.921c-.155,2.513-.239,3.8-.268,4.281H106.5l-.05-2.513c8.977-2.765,18.469.419,28.334-1.78" transform="translate(339.43 328.757)" fill="#fff"/>
      <path id="Path_164" data-name="Path 164" d="M206.229,122.906c3.121,0,7.758-2.174,6.966,4.017a5.591,5.591,0,0,1-3.569,3.661,15.071,15.071,0,0,1-7.708-.109c-1.831-.578-3.163-2.74-4.717-4.189a29.631,29.631,0,0,1,4.905-3.28,11.272,11.272,0,0,1,4.122-.1" transform="translate(628.82 391.348)" fill="#fff"/>
      <path id="Path_165" data-name="Path 165" d="M99.444,103.079c8.093,0,15.729-.109,23.358.1,1.37.038,2.7,1.407,4.051,2.161-1.2.754-2.4,2.132-3.615,2.157-6.937.151-13.882-.092-20.827-.046-3.121.021-4.046-1.177-2.966-4.373" transform="translate(315.693 329.21)" fill="#fff"/>
      <path id="Path_166" data-name="Path 166" d="M332.992,111h13.216c-.674,3.561-.3,7.461-2.036,9.044a8.423,8.423,0,0,1-8.219.775c-1.948-1.676-1.872-5.71-2.962-9.819" transform="translate(1061.846 354.562)" fill="#fff"/>
      <path id="Path_167" data-name="Path 167" d="M337.022,111.029c2.317-.377,4.08.553,4.122,4.44.054,5-2.58,5.9-6.807,6.049-4.813.163-4.729-3.108-4.876-6.166-.235-4.939,3.561-4.038,7.54-4.323" transform="translate(1050.553 354.407)" fill="#fff"/>
      <path id="Path_168" data-name="Path 168" d="M342.835,121.58c-4.088.5-5.689-1.156-5.865-5.228-.167-4.26,1.91-5.55,5.517-5.517,3.351.034,5.818,1.454,5.676,5.2-.126,3.351-1.01,6.334-5.341,5.546" transform="translate(1074.503 354.035)" fill="#fff"/>
      <path id="Path_169" data-name="Path 169" d="M274.294,113.068c3.221,0,6.606-.243,9.936.075,2.635.256,4.357,4.976,2.325,5.789a24.523,24.523,0,0,1-10.376,1.257c-.838-.05-1.479-3.435-2.153-5.3-.1-.285.088-.674.268-1.805" transform="translate(873.711 360.872)" fill="#fff"/>
      <path id="Path_170" data-name="Path 170" d="M326.057,121.2c-3.531-.875-7.1-1.646-10.51-2.853-.251-.088.385-4.784,1.009-4.884a23.577,23.577,0,0,1,9.685.075c.959.26.951,4.1,1.387,6.283l-1.571,1.366" transform="translate(1006.035 360.933)" fill="#fff"/>
      <path id="Path_171" data-name="Path 171" d="M311.157,122.386c-2.56-2.455-5.215-3.82-5.684-5.726-.779-3.163,1.9-3.845,4.691-3.661,3.066.2,7.071-.57,7.046,3.883,0,1.55-3.259,3.079-6.053,5.5" transform="translate(973.651 360.845)" fill="#fff"/>
      <path id="Path_172" data-name="Path 172" d="M278.567,119.227c-1.935-1.805-4.579-3.138-4.583-4.482,0-4.662,4.365-3.431,7.071-4.047,3-.683,5.927,1.139,5.1,3.992-.532,1.81-4.281,2.681-7.586,4.537" transform="translate(873.673 353.142)" fill="#fff"/>
      <path id="Path_173" data-name="Path 173" d="M269.394,113.09c3.091-.444,6,.059,5.81,4.155-.2,4.3-3.875,2.932-6.363,3.259-2.8.385-4.717-.448-4.838-3.741-.142-4,2.513-3.866,5.391-3.674" transform="translate(841.827 360.804)" fill="#fff"/>
      <path id="Path_174" data-name="Path 174" d="M273.262,113.1c3.029-.519,5.073.511,4.922,4.017-.172,4-3.322,3.234-5.8,3.385-2.58.155-4.935.059-4.981-3.569-.059-4.382,2.932-3.9,5.864-3.833" transform="translate(852.68 360.843)" fill="#fff"/>
      <path id="Path_175" data-name="Path 175" d="M280.818,114.192c-.5,2.162-.394,5.6-1.638,6.191a11.154,11.154,0,0,1-7.469-.209c-.758-.243-1.219-4.721-.737-4.947a46.994,46.994,0,0,1,8.281-2.375Z" transform="translate(863.446 360.468)" fill="#fff"/>
      <path id="Path_176" data-name="Path 176" d="M321.316,118.673c-2.434-1.965-5.542-3.251-5.71-4.847-.419-3.892,3.154-3.016,5.617-3.07,2.773-.063,6.237-.364,6.133,3.431-.038,1.336-3.351,2.58-6.04,4.486" transform="translate(1006.298 353.629)" fill="#fff"/>
      <path id="Path_177" data-name="Path 177" d="M311.5,110.248c2.145,2.178,4.855,3.657,4.9,5.211.113,4.239-3.833,3.4-6.154,2.962-1.814-.339-3.3-2.455-4.922-3.77l6.179-4.394" transform="translate(973.618 352.164)" fill="#fff"/>
      <path id="Path_178" data-name="Path 178" d="M312.91,122.694c-1.86-2.987-3.351-4.4-3.64-6.036-.758-4.143,2.43-3.561,5-3.686,2.773-.138,5.446.578,4.637,3.707-.49,1.906-3.125,3.263-6,6.015" transform="translate(985.835 360.797)" fill="#fff"/>
      <path id="Path_179" data-name="Path 179" d="M322.278,114.626c-.674,2.057-.888,5.446-2.132,5.865a12.437,12.437,0,0,1-7.285-.926,5.484,5.484,0,0,1-.306-4.03,58.323,58.323,0,0,1,8.068-2.756Z" transform="translate(995.886 360.235)" fill="#fff"/>
      <path id="Path_180" data-name="Path 180" d="M264.594,110.533c3.322,2.342,9.446-2.513,9.995,4.5.335,4.294-3.77,2.425-5.961,2.543-4.256.23-5.446-2.174-4.034-7.046" transform="translate(841.924 353.073)" fill="#fff"/>
      <path id="Path_181" data-name="Path 181" d="M269.522,110.445c2.84,1.345,5.714,2.626,8.449,4.155.21.117-.448,2.844-.9,2.9a20.652,20.652,0,0,1-8.127.109c-.938-.268-.993-3.632-1.449-5.584Z" transform="translate(852.993 352.792)" fill="#fff"/>
      <path id="Path_182" data-name="Path 182" d="M314.153,118.983l-5.169-5.048a64.386,64.386,0,0,1,7.93-3.267c.628-.18,2.706,2.312,2.622,2.417-1.408,1.814-3.05,3.448-5.383,5.9" transform="translate(985.286 353.474)" fill="#fff"/>
      <path id="Path_183" data-name="Path 183" d="M316.552,118.691l-4.231-4.411c1.487-1.3,3.058-3.728,4.436-3.623,1.751.13,3.351,2.321,5.027,3.623l-5.211,4.411" transform="translate(995.928 353.456)" fill="#fff"/>
      <path id="Path_184" data-name="Path 184" d="M275.627,118.988c-2.266-2.178-4.633-3.38-4.763-4.792-.31-3.309,2.622-3.912,5.081-3.322,1.579.381,2.849,2.094,4.256,3.184l-4.574,4.93" transform="translate(863.652 353.52)" fill="#fff"/>
      <path id="Path_185" data-name="Path 185" d="M265.692,112.427c1.638,3.091,3.351,4.905,2.978,5.961-.578,1.613-2.614,2.7-4.034,4.013-1.156-1.567-2.974-3.037-3.226-4.738-.163-1.1,1.969-2.539,4.281-5.236" transform="translate(833.55 359.112)" fill="#fff"/>
      <path id="Path_186" data-name="Path 186" d="M323.115,122.349c-1.956-2.706-3.77-4.189-3.9-5.756-.071-1.123,2.019-3.1,3.452-3.456,2.689-.679,5.06.729,4.658,3.77-.2,1.521-2.095,2.815-4.214,5.425" transform="translate(1017.921 360.844)" fill="#fff"/>
      <path id="Path_187" data-name="Path 187" d="M281.67,122.532c-2.04-2.568-3.6-3.665-3.8-4.968-.381-2.513.448-5.211,3.77-4.474a5.494,5.494,0,0,1,3.351,3.77c.188,1.257-1.542,2.815-3.305,5.663" transform="translate(885.793 360.833)" fill="#fff"/>
      <path id="Path_188" data-name="Path 188" d="M326.68,112.15c-3.112.385-6.216.884-9.337,1.039-.532.029-1.734-1.6-1.567-2.12.3-.9,1.407-2.157,2.191-2.17a83.88,83.88,0,0,1,8.453.616c.088.88.172,1.755.26,2.635" transform="translate(1006.895 347.862)" fill="#fff"/>
      <path id="Path_189" data-name="Path 189" d="M280.847,109.1c.641-.029,1.852-.419,2.685-.029.984.473,1.646,1.63,2.446,2.488a13.6,13.6,0,0,1-3.184,1.407,18.384,18.384,0,0,1-5.027.193,19.143,19.143,0,0,1-3.829-1.223,19.762,19.762,0,0,1,3.431-2.756,9.29,9.29,0,0,1,3.485-.08" transform="translate(873.53 347.846)" fill="#fff"/>
      <path id="Path_190" data-name="Path 190" d="M310.034,113.9a40.126,40.126,0,0,1-1.764,6.769,5.418,5.418,0,0,1-4.1-.7c-.942-1.077-1.63-3.845-.984-4.541a16.076,16.076,0,0,1,5.383-2.6l1.462,1.068" transform="translate(966.002 360.388)" fill="#fff"/>
      <path id="Path_191" data-name="Path 191" d="M269.055,114.828l-4.842-4.109c1.722-.683,3.493-1.994,5.152-1.864,1.529.126,2.932,1.793,4.4,2.781Z" transform="translate(842.514 347.692)" fill="#fff"/>
      <path id="Path_192" data-name="Path 192" d="M286.916,114.487c-2.7,1.257-4.268,2.647-5.538,2.417-1.37-.251-2.463-2.019-3.678-3.125a15.732,15.732,0,0,1,4.675-3.071c.838-.2,2.2,1.751,4.541,3.77" transform="translate(885.523 353.588)" fill="#fff"/>
      <path id="Path_193" data-name="Path 193" d="M272.042,114.9l-4.361-3.385c1.361-.959,2.815-2.8,4.068-2.677a17.292,17.292,0,0,1,5.529,2.723c-1.571,1-3.137,2-5.236,3.351" transform="translate(853.573 347.656)" fill="#fff"/>
      <path id="Path_194" data-name="Path 194" d="M323.655,118.6c-2.095-2.094-3.255-3.292-4.415-4.47,1.227-1.211,2.392-3.288,3.707-3.389a5.1,5.1,0,0,1,3.841,2.957c.322.88-1.554,2.564-3.133,4.9" transform="translate(1017.992 353.736)" fill="#fff"/>
      <path id="Path_195" data-name="Path 195" d="M310.372,115.073c-1.483.729-3,2.057-4.44,1.99-1.03-.046-1.973-1.965-2.932-3.05,1.374-1.185,2.618-3.012,4.189-3.351,1.341-.306,3.071,1.072,4.608,1.709-.473.9-.955,1.814-1.424,2.719" transform="translate(966.2 353.345)" fill="#fff"/>
      <path id="Path_196" data-name="Path 196" d="M264.958,117.826l-3.607-3.854c1.257-1.152,2.442-3.037,3.833-3.213,1.072-.138,2.417,1.877,3.64,2.932Z" transform="translate(833.387 353.772)" fill="#fff"/>
      <path id="Path_197" data-name="Path 197" d="M305.534,109.434c2.752-.214,5.27-.519,7.787-.536.674,0,1.923.875,1.91,1.315a3.762,3.762,0,0,1-1.206,2.6c-2.568,1.944-6.56.5-8.491-3.38" transform="translate(974.284 347.859)" fill="#fff"/>
      <path id="Path_198" data-name="Path 198" d="M309.083,111.109l9.635-2.262c-1.2,5.446-3.012,6.057-9.149,3.883-.159-.54-.314-1.081-.473-1.621" transform="translate(985.602 347.696)" fill="#fff"/>
      <path id="Path_199" data-name="Path 199" d="M321.205,111.012a13.732,13.732,0,0,1-4.7,1.676c-1.382-.034-2.735-1.345-4.1-2.094.176-.5.352-1,.524-1.5h7.561Z" transform="translate(996.193 348.496)" fill="#fff"/>
      <path id="Path_200" data-name="Path 200" d="M275.2,108.745l3.556,3.045a13.1,13.1,0,0,1-4.386,2.3c-1.047.1-2.249-1.441-3.38-2.249Z" transform="translate(864.142 347.371)" fill="#fff"/>
      <path id="Path_201" data-name="Path 201" d="M268.478,111.144a27.524,27.524,0,0,1-4.976,2.769c-.377.117-1.294-1.521-1.965-2.354a16.578,16.578,0,0,1,3.6-2.7c.515-.209,1.638,1.077,3.351,2.287" transform="translate(833.981 347.657)" fill="#fff"/>
      <path id="Path_202" data-name="Path 202" d="M133.652,105.129V94.414l.838-.033v10.694Z" transform="translate(426.163 301.562)"/>
    </g>
  </g>
</svg>
