<?xml version="1.0" encoding="UTF-8"?>
<svg id="Layer_2" data-name="Layer 2" xmlns="http://www.w3.org/2000/svg" viewBox="0 0 1046 290.92">
  <defs>
    <style>
      .cls-1 {
        fill: #8cb368;
      }

      .cls-2 {
        fill: none;
      }
    </style>
  </defs>
  <g id="Layer_1-2" data-name="Layer 1">
    <g>
      <path d="m193.42,58.52c-15.92-8.45-36.05-12.67-60.41-12.67-19.5,0-37.45,4.71-53.84,14.13-16.41,9.43-29.64,22.5-39.71,39.22-10.07,16.73-15.1,36.3-15.1,58.71,0,20.46,4.38,38.9,13.15,55.3,8.76,16.41,21.51,29.4,38.24,38.98,16.72,9.59,36.78,14.37,60.17,14.37,11.7,0,22.66-1.14,32.89-3.41,10.23-2.27,19.41-5.52,27.53-9.74,1.63-.98,3.41-1.47,5.36-1.47,3.57,0,6.49,1.14,8.77,3.41,2.27,2.28,3.41,5.2,3.41,8.77,0,5.2-2.28,8.77-6.82,10.72-9.74,5.2-20.64,9.19-32.65,11.94-12.01,2.76-24.84,4.13-38.49,4.13-28.58,0-53.02-5.84-73.32-17.54s-35.81-27.61-46.53-47.75C5.36,205.5,0,182.93,0,157.91c0-27.29,6.17-51.16,18.52-71.62,12.34-20.47,28.58-36.38,48.72-47.75,20.13-11.37,42.06-17.06,65.78-17.06,29.23,0,53.26,5.2,72.1,15.59,4.21,2.61,6.33,6.18,6.33,10.73,0,2.91-1.14,5.68-3.41,8.28-2.28,2.61-5.2,3.9-8.77,3.9-1.94,0-3.9-.49-5.85-1.46Z"/>
      <path d="m366.38,93.6c19.81,0,36.94,4.47,51.4,13.39,14.45,8.94,25.65,20.95,33.62,36.06,7.95,15.1,11.93,31.91,11.93,50.42s-3.98,33.94-11.93,48.23c-7.97,14.29-19.17,25.66-33.62,34.11-14.45,8.45-31.59,12.67-51.4,12.67s-36.55-4.22-51.16-12.67c-14.62-8.45-25.91-19.98-33.86-34.59-7.97-14.62-11.93-30.86-11.93-48.72s3.9-34.75,11.69-49.7c7.8-14.94,19-26.87,33.62-35.81,14.61-8.92,31.83-13.39,51.64-13.39Zm0,24.35c-14.95,0-27.85,3.41-38.74,10.24-10.88,6.82-19.24,15.83-25.09,27.04-5.85,11.2-8.77,23.62-8.77,37.27,0,20.14,6.58,37.11,19.74,50.91,13.15,13.81,30.77,20.71,52.86,20.71s39.71-6.82,52.86-20.46c13.15-13.65,19.73-30.37,19.73-50.19,0-13.97-2.91-26.62-8.76-38-5.85-11.37-14.21-20.46-25.1-27.28-10.88-6.83-23.79-10.24-38.73-10.24Z"/>
      <path d="m531.54,25.39c0-3.58,1.22-6.5,3.66-8.77,2.43-2.27,5.27-3.41,8.52-3.41,3.57,0,6.49,1.14,8.77,3.41,2.26,2.27,3.41,5.19,3.41,8.77v248.96c0,3.25-1.15,6.1-3.41,8.52-2.28,2.44-5.2,3.66-8.77,3.66-3.25,0-6.1-1.22-8.52-3.66-2.44-2.43-3.66-5.27-3.66-8.52V25.39Z"/>
      <path d="m720.58,93.6c19.81,0,36.94,4.47,51.4,13.39,14.45,8.94,25.65,20.95,33.62,36.06,7.95,15.1,11.93,31.91,11.93,50.42s-3.98,33.94-11.93,48.23c-7.97,14.29-19.17,25.66-33.62,34.11-14.45,8.45-31.59,12.67-51.4,12.67s-36.55-4.22-51.16-12.67c-14.62-8.45-25.91-19.98-33.86-34.59-7.97-14.62-11.93-30.86-11.93-48.72s3.9-34.75,11.69-49.7c7.8-14.94,19-26.87,33.62-35.81,14.61-8.92,31.83-13.39,51.64-13.39Zm0,24.35c-14.95,0-27.85,3.41-38.74,10.24-10.88,6.82-19.24,15.83-25.09,27.04-5.85,11.2-8.77,23.62-8.77,37.27,0,20.14,6.58,37.11,19.74,50.91,13.15,13.81,30.77,20.71,52.86,20.71s39.71-6.82,52.86-20.46c13.15-13.65,19.73-30.37,19.73-50.19,0-13.97-2.91-26.62-8.76-38-5.85-11.37-14.21-20.46-25.1-27.28-10.88-6.83-23.79-10.24-38.73-10.24Z"/>
      <path d="m907.04,219.29v-3.45l-24.26,18.37v40.09c0,3.35,1.22,6.19,3.65,8.53,2.44,2.44,5.28,3.65,8.53,3.65,3.65,0,6.5-1.22,8.83-3.65,2.23-2.33,3.35-5.18,3.35-8.53v-55.01h-.1Zm136.52,47.71l-71.56-100.28-19.39,14.62,71.46,100.28c2.03,3.25,5.28,4.87,9.74,4.87,3.25,0,6.09-1.22,8.53-3.65,2.44-2.33,3.65-5.18,3.65-8.53,0-2.54-.81-4.97-2.44-7.31Z"/>
      <path class="cls-1" d="m1039.71,93.99c0,4.57-1.62,8.02-4.87,10.25l-24.46,19.18-127.59,97.54V12.18c0-3.65,1.22-6.5,3.65-8.83,2.44-2.23,5.28-3.35,8.53-3.35,3.65,0,6.5,1.12,8.83,3.35,2.23,2.33,3.35,5.18,3.35,8.83v161.29l113.07-88.71c2.23-1.62,4.57-2.44,6.8-2.44,3.55,0,6.6,1.01,9.03,3.15,2.44,2.13,3.65,4.97,3.65,8.53Z"/>
      <line class="cls-2" x1="951.5" y1="179.57" x2="955.61" y2="185.39"/>
    </g>
  </g>
</svg>